<svg width="24" height="24" fill="none" xmlns="http://www.w3.org/2000/svg"><g clip-path="url(#a)"><mask id="b" style="mask-type:alpha" maskUnits="userSpaceOnUse" x="2" y="2" width="20" height="20"><path d="M12 2C6.5 2 2 6.5 2 12s4.5 10 10 10 10-4.5 10-10S17.5 2 12 2Zm0 18c-4.4 0-8-3.6-8-8s3.6-8 8-8 8 3.6 8 8-3.6 8-8 8Zm3.5-10.1L13.4 12l2.1 2.1c.4.4.4 1 0 1.4-.2.2-.45.3-.7.3-.25 0-.5-.1-.7-.3L12 13.4l-2.1 2.1c-.2.2-.45.3-.7.3-.25 0-.5-.1-.7-.3-.4-.4-.4-1 0-1.4l2.1-2.1-2.1-2.1c-.4-.4-.4-1 0-1.4.4-.4 1-.4 1.4 0l2.1 2.1 2.1-2.1c.4-.4 1-.4 1.4 0 .4.35.4 1 0 1.4Z" fill="#333"/></mask><g mask="url(#b)"><path d="M12 2C6.5 2 2 6.5 2 12s4.5 10 10 10 10-4.5 10-10S17.5 2 12 2Zm0 18c-4.4 0-8-3.6-8-8s3.6-8 8-8 8 3.6 8 8-3.6 8-8 8Zm3.5-10.1L13.4 12l2.1 2.1c.4.4.4 1 0 1.4-.2.2-.45.3-.7.3-.25 0-.5-.1-.7-.3L12 13.4l-2.1 2.1c-.2.2-.45.3-.7.3-.25 0-.5-.1-.7-.3-.4-.4-.4-1 0-1.4l2.1-2.1-2.1-2.1c-.4-.4-.4-1 0-1.4.4-.4 1-.4 1.4 0l2.1 2.1 2.1-2.1c.4-.4 1-.4 1.4 0 .4.35.4 1 0 1.4Z" fill="#fff"/></g></g><defs><clipPath id="a"><path fill="#fff" d="M0 0h24v24H0z"/></clipPath></defs></svg>