<svg id="Layer_1" data-name="Layer 1" xmlns="http://www.w3.org/2000/svg" viewBox="0 0 48 48"><defs><style>.cls-1{fill:none;}.cls-2{fill:#333;}</style></defs><title>CommandJoin</title><g id="Artwork"><rect class="cls-1" width="48" height="48"/><path class="cls-2" d="M8,42a2,2,0,0,0,1.4-.6l6.7-6.7a16.86,16.86,0,0,0,22.3-1.3l3-3a1.93,1.93,0,0,0,0-2.8L35.8,22l5.6-5.6a2,2,0,0,0-2.8-2.8L33,19.2,28.8,15l5.6-5.6a2,2,0,0,0-2.8-2.8L26,12.2,20.4,6.6a1.93,1.93,0,0,0-2.8,0l-3,3a16.83,16.83,0,0,0-1.3,22.3L6.6,38.6a1.93,1.93,0,0,0,0,2.8A2,2,0,0,0,8,42Zm9.4-29.6L19,10.8,37.2,29l-1.6,1.6A12.87,12.87,0,0,1,17.4,12.4Z"/></g></svg>