<svg id="Layer_1" data-name="Layer 1" xmlns="http://www.w3.org/2000/svg" viewBox="0 0 48 48"><defs><style>.cls-1{fill:none;}.cls-2{fill:#333;}</style></defs><title>CommandRunTool</title><rect class="cls-1" width="48" height="48"/><path class="cls-2" d="M40.18,12.32H32v-2a4.51,4.51,0,0,0-4.5-4.5H20.18a4.51,4.51,0,0,0-4.5,4.5v2H7.82A3.85,3.85,0,0,0,4,16.23v22a3.86,3.86,0,0,0,3.8,3.91H40.18A3.86,3.86,0,0,0,44,38.23v-22A3.85,3.85,0,0,0,40.18,12.32Zm-20.5-2a.5.5,0,0,1,.5-.5h7.36a.5.5,0,0,1,.5.5v2H19.68Zm-4,6H40v4.17H8V16.32Zm4,8.17H28v2a.5.5,0,0,1-.5.5H20.18a.5.5,0,0,1-.5-.5ZM8,38.14V24.49h7.66v2a4.51,4.51,0,0,0,4.5,4.5h7.36a4.51,4.51,0,0,0,4.5-4.5v-2H40V38.14Z"/></svg>