<svg id="Layer_1" data-name="Layer 1" xmlns="http://www.w3.org/2000/svg" viewBox="0 0 96 96"><defs><style>.cls-1{fill:#7d7d7d;opacity:0.7;}</style></defs><title>aa</title><path class="cls-1" d="M20.8,69.6c-3.8-3.6-7.6-6.5-10.5-10.1C2,49.1,3,35.7,12.3,26.1c6.9-7,15.4-10.8,24.9-12.5a56.2,56.2,0,0,1,31.9,3C77.4,20,84.4,25,88.6,33.1a24.3,24.3,0,0,1-3.6,27.5c-7.3,8.3-16.8,12.5-27.5,14.3a54.3,54.3,0,0,1-18.2,0,5.3,5.3,0,0,0-4,.9,48.2,48.2,0,0,1-19.7,7.5,3.1,3.1,0,0,1-2.6-1,3.3,3.3,0,0,1,.5-2.8c1.4-2,3.2-3.7,4.7-5.6A47.2,47.2,0,0,0,20.8,69.6Z"/></svg>