<svg id="Layer_1" data-name="Layer 1" xmlns="http://www.w3.org/2000/svg" viewBox="0 0 400 300"><defs><style>.cls-1{fill:#f3f3f3;}.cls-2{fill:#e0e0e0;}.cls-3,.cls-4,.cls-6,.cls-7,.cls-8{fill:none;}.cls-3{stroke:#e0e0e0;}.cls-10,.cls-11,.cls-3,.cls-8,.cls-9{stroke-miterlimit:10;}.cls-10,.cls-11,.cls-3,.cls-4,.cls-5,.cls-6,.cls-7,.cls-8,.cls-9{stroke-width:3px;}.cls-10,.cls-11,.cls-4,.cls-5,.cls-6,.cls-7,.cls-8,.cls-9{stroke:#7d7d7d;}.cls-4,.cls-5,.cls-6,.cls-7{stroke-linecap:round;stroke-linejoin:round;}.cls-5{fill:#fff;}.cls-6{stroke-dasharray:1.92 5.77;}.cls-7{stroke-dasharray:2 6;}.cls-9{fill:#dbdbdb;}.cls-10{fill:#f5f5f5;}.cls-11{fill:#ccc;}</style></defs><title>EmptySupport</title><circle class="cls-1" cx="183.81" cy="82.63" r="38.39"/><rect class="cls-2" x="329.89" y="127.19" width="8.54" height="8.54" transform="translate(4.92 274.79) rotate(-45)"/><circle class="cls-2" cx="301.3" cy="87.25" r="5.49"/><circle class="cls-3" cx="59.74" cy="106.56" r="6.71"/><path class="cls-2" d="M60.41,166.76h59.43s2.48-12.38-7.43-12.38c0,0,0-19.81-14.86-19.81S80.22,147,80.22,147s-2.47-2.47-7.43-2.47c-7.42,0-7.42,7.42-7.42,12.38,0,0-7.28-4-9.91,2.47C54,163,57,166.21,60.41,166.76"/><circle class="cls-4" cx="128.42" cy="82.25" r="5.93"/><circle class="cls-4" cx="342.74" cy="168.99" r="4.24"/><line class="cls-4" x1="87.25" y1="48.65" x2="79.63" y2="56.28"/><line class="cls-4" x1="79.63" y1="48.65" x2="87.25" y2="56.28"/><path class="cls-5" d="M251.49,154h60.09a16.09,16.09,0,0,0-15.88-13.55,15.82,15.82,0,0,0-5.18.87,14.4,14.4,0,1,0-27.56-8,11.74,11.74,0,0,0-5.38-1.3,11.85,11.85,0,0,0-6.09,22Z"/><line class="cls-4" x1="256.02" y1="234.68" x2="257.02" y2="234.68"/><path class="cls-6" d="M262.79,234.68h30.46s13.44-2.07,13.44,13.45c0,0-1,6.2-6.2,6.2a4.8,4.8,0,0,1-3.87-1.59"/><path class="cls-4" d="M295.43,250.15a5.88,5.88,0,0,1-.11-1"/><line class="cls-7" x1="202.92" y1="245.96" x2="236.02" y2="245.96"/><line class="cls-4" x1="278.07" y1="246.45" x2="268.76" y2="255.76"/><line class="cls-4" x1="268.76" y1="246.45" x2="278.07" y2="255.76"/><path class="cls-8" d="M245.26,187.78s8.59,5.25,9.09,11.81-15.84,21.89-15.84,21.89.07,3.86-24.39-3.82"/><path class="cls-9" d="M170.81,147.23a36.4,36.4,0,0,1,1.59-8.57,36,36,0,1,1,66,28l8.27,5.24A45.78,45.78,0,1,0,161,149.79Z"/><path class="cls-10" d="M172.28,143.12a17.07,17.07,0,0,0-10.22,32.55Z"/><rect class="cls-11" x="160.43" y="138.82" width="14.65" height="41.5" rx="6" transform="matrix(0.95, 0.3, -0.3, 0.95, 55.53, -42.94)"/><path class="cls-10" d="M240,164.39a17.07,17.07,0,0,1-10.22,32.55Z"/><rect class="cls-11" x="226.98" y="159.73" width="14.65" height="41.5" rx="6" transform="translate(403.76 422.87) rotate(-162.56)"/><rect class="cls-11" x="192.78" y="207.44" width="24.41" height="13.43" rx="5.5" transform="translate(73.59 -51.59) rotate(17.44)"/><path class="cls-5" d="M166.78,164.52a19.37,19.37,0,0,0-8.85,2.14,23.67,23.67,0,0,0-46.15-.92,18.94,18.94,0,0,0-30.57,15,19.45,19.45,0,0,0,.45,4.07,7.84,7.84,0,0,0-2.07-.28A8.13,8.13,0,0,0,78,200.59a.76.76,0,0,1,0,.16h98.83a19.49,19.49,0,0,0-10-36.23Z"/><polygon class="cls-2" points="218.46 59.76 210.37 59.76 206.33 66.76 210.37 73.76 218.46 73.76 222.5 66.76 218.46 59.76"/></svg>