<svg id="Layer_1" data-name="Layer 1" xmlns="http://www.w3.org/2000/svg" viewBox="0 0 96 96"><defs><style>.cls-1{opacity:0.7;}.cls-2{fill:#7d7d7d;}</style></defs><title>aa</title><g class="cls-1"><path class="cls-2" d="M88.9,26.4c0,1.5,0,2.8,0,4.2q0,23.6,0,47.2c0,5.3-3.1,9.5-8,10.7a11.6,11.6,0,0,1-2.9.3H18A10.5,10.5,0,0,1,7.1,78.2c0-17,0-33.9,0-50.9,0-.8.3-.9,1-.9H88.9ZM26.6,50.6l-.9.6-6.4,6.5a4.2,4.2,0,0,0-1.1,2,3.4,3.4,0,0,0,2,3.6,3.2,3.2,0,0,0,3.8-.8L35.6,50.8l.3-.3L23.6,38.1a3.1,3.1,0,0,0-4.1,0,3.3,3.3,0,0,0-.2,5.3ZM49.2,64.8h5.3c2-.1,3.2-1.4,3.2-3.7s-1.2-3.5-3.2-3.5H44.1c-2.1,0-3.3,1.4-3.3,3.6S42,64.8,44,64.8Z"/><path class="cls-2" d="M88.9,21.5H7.3C6.4,15.2,8.3,9.3,15.4,7.4a10.7,10.7,0,0,1,2.7-.3h60A10.5,10.5,0,0,1,88.9,17.3C88.9,18.7,88.9,20.1,88.9,21.5ZM81.7,12a2.2,2.2,0,0,0-2.5,2.4,2.4,2.4,0,0,0,4.8.1A2.2,2.2,0,0,0,81.7,12Zm-9.6,0a2.2,2.2,0,0,0-2.5,2.4A2.1,2.1,0,0,0,72,16.7a2.2,2.2,0,0,0,2.5-2.4A2.2,2.2,0,0,0,72.2,12Zm-9.6,0a2.1,2.1,0,0,0-2.5,2.3c0,1.7.7,2.5,2.3,2.5a2.2,2.2,0,0,0,2.5-2.4A2.1,2.1,0,0,0,62.5,12Z"/></g></svg>