<svg id="Layer_1" data-name="Layer 1" xmlns="http://www.w3.org/2000/svg" xmlns:xlink="http://www.w3.org/1999/xlink" viewBox="0 0 400 300"><defs><style>.cls-1,.cls-15,.cls-2,.cls-4,.cls-6,.cls-7{fill:none;}.cls-10,.cls-11,.cls-12,.cls-2,.cls-7{stroke:#7d7d7d;}.cls-15,.cls-2,.cls-7{stroke-linecap:round;}.cls-10,.cls-11,.cls-12,.cls-15,.cls-2,.cls-4,.cls-6{stroke-miterlimit:10;}.cls-10,.cls-11,.cls-12,.cls-15,.cls-2,.cls-4,.cls-6,.cls-7{stroke-width:3px;}.cls-3{fill:#7d7d7d;}.cls-4{stroke:#e2e2e2;}.cls-5{fill:#e0e0e0;}.cls-6{stroke:#e0e0e0;}.cls-7{stroke-linejoin:round;}.cls-8{fill:#f3f3f3;}.cls-9{clip-path:url(#clip-path);}.cls-10,.cls-14{fill:#ccc;}.cls-11{fill:#f5f5f5;}.cls-12,.cls-13{fill:#dbdbdb;}.cls-15{stroke:#ccc;}</style><clipPath id="clip-path"><path class="cls-1" d="M106.79,210.27c7.48,0,7.48,6,14.95,6s7.48-6,15-6,7.48,6,14.95,6,7.48-6,15-6,7.48,6,14.95,6,7.48-6,15-6,7.48,6,14.95,6,7.48-6,14.95-6,7.47,6,15,6,7.47-6,14.94-6,7.48,6,15,6,7.48-6,14.95-6,7.48,6,14.95,6,7.47-6,14.95-6a9.7,9.7,0,0,1,5.84,1.76V53.26h-230v163C99.31,216.2,99.34,210.27,106.79,210.27Z"/></clipPath></defs><title>EmptyMeeting</title><line class="cls-2" x1="351.92" y1="211.26" x2="357.92" y2="211.26"/><line class="cls-2" x1="150.92" y1="244.26" x2="157.7" y2="244.26"/><line class="cls-2" x1="171.24" y1="244.26" x2="206.8" y2="244.26"/><line class="cls-2" x1="262.24" y1="229.26" x2="297.8" y2="229.26"/><line class="cls-2" x1="214.42" y1="244.26" x2="267.76" y2="244.26"/><line class="cls-2" x1="281.3" y1="244.26" x2="288.92" y2="244.26"/><line class="cls-2" x1="131.24" y1="229.26" x2="166.8" y2="229.26"/><line class="cls-2" x1="174.42" y1="229.26" x2="227.76" y2="229.26"/><line class="cls-2" x1="241.3" y1="229.26" x2="248.92" y2="229.26"/><line class="cls-2" x1="183.09" y1="260.27" x2="223.73" y2="260.27"/><line class="cls-2" x1="229.66" y1="260.27" x2="230.51" y2="260.27"/><circle class="cls-3" cx="316.92" cy="258.26" r="3"/><circle class="cls-4" cx="101.67" cy="240.01" r="4.25"/><circle class="cls-3" cx="108.92" cy="163.26" r="3"/><rect class="cls-5" x="289.92" y="48.26" width="7" height="7" transform="translate(49.34 222.64) rotate(-45)"/><polygon class="cls-5" points="313.69 118.32 307.76 117.18 301.84 116.04 305.79 111.48 309.74 106.92 311.71 112.62 313.69 118.32"/><circle class="cls-5" cx="337.42" cy="86.76" r="4.5"/><circle class="cls-6" cx="337.42" cy="146.76" r="5.5"/><line class="cls-7" x1="129.17" y1="104.43" x2="122.92" y2="110.67"/><line class="cls-7" x1="122.92" y1="104.43" x2="129.17" y2="110.67"/><path class="cls-7" d="M78.92,50.25s3.14-3.14,7.52,0c0,0,1.26-5.64,6.27-5"/><path class="cls-7" d="M99.59,62.26s2.51-4.39,8.78,0c0,0,3.13-7.52,8.15-6.27"/><circle class="cls-8" cx="192.32" cy="77.13" r="38.39"/><line class="cls-2" x1="43.3" y1="211.73" x2="42.08" y2="211.73"/><g class="cls-9"><rect class="cls-10" x="211.88" y="94.42" width="10.14" height="134.63" rx="4.01" transform="translate(128.53 -94.01) rotate(34.23)"/><rect class="cls-11" x="172.23" y="110.81" width="106.04" height="77.46" transform="translate(123.11 -100.79) rotate(34.23)"/><rect class="cls-3" x="218.47" y="185.29" width="26.74" height="11.07" rx="2.65" transform="translate(147.47 -97.35) rotate(34.23)"/><rect class="cls-12" x="186.83" y="113.75" width="119.87" height="8.3" rx="3.28" transform="translate(109.04 -118.38) rotate(34.23)"/><path class="cls-12" d="M144.31,175.34H264.18a0,0,0,0,1,0,0v5.88a4.26,4.26,0,0,1-4.26,4.26H148.57a4.26,4.26,0,0,1-4.26-4.26v-5.88A0,0,0,0,1,144.31,175.34Z" transform="translate(136.84 -83.63) rotate(34.23)"/><path class="cls-12" d="M197.22,232a2.33,2.33,0,0,0,3.36-3,33.5,33.5,0,0,0-10.8-12.06l-14.13-9.61a33.49,33.49,0,0,0-15.18-5.62,2.33,2.33,0,0,0-1.59,4.24Z"/><path class="cls-13" d="M246.9,160.59l13.61,6.76a15.64,15.64,0,0,1-1.44,2.34,15.2,15.2,0,1,1-4.51-22.22Z"/><path class="cls-14" d="M252.68,157.69,261,145c.25.17.5.34.74.52A15.26,15.26,0,0,1,266,165.09Z"/><line class="cls-15" x1="198.42" y1="115.35" x2="231.57" y2="137.49"/><line class="cls-15" x1="202.31" y1="109.13" x2="242.41" y2="135.91"/><circle class="cls-13" cx="190.97" cy="134.36" r="3.34"/><circle class="cls-13" cx="202.77" cy="142.24" r="3.34"/><circle class="cls-13" cx="214.57" cy="150.12" r="3.34"/></g><polygon class="cls-5" points="227.96 44.26 219.88 44.26 215.84 51.26 219.88 58.26 227.96 58.26 232.01 51.26 227.96 44.26"/><path class="cls-2" d="M47.92,211.27c7.48,0,7.48,6,14.95,6s7.47-6,14.95-6,7.47,6,15,6,7.47-6,15-6,7.47,6,15,6,7.47-6,14.94-6,7.48,6,14.95,6,7.47-6,14.95-6,7.47,6,14.94,6,7.48-6,15-6,7.48,6,14.95,6,7.48-6,15-6,7.48,6,14.95,6,7.48-6,14.95-6,7.48,6,15,6,7.47-6,14.94-6,7.48,6,15,6,7.47-6,14.95-6,7.48,6,15,6,7.47-6,14.95-6"/></svg>