<svg xmlns="http://www.w3.org/2000/svg" viewBox="0 0 400 300"><defs><style>.cls-1{isolation:isolate;}.cls-2{fill:#e0e0e0;}.cls-3{fill:#f3f3f3;}.cls-11,.cls-4,.cls-5{fill:none;}.cls-4{stroke:#e0e0e0;}.cls-11,.cls-4,.cls-7,.cls-8,.cls-9{stroke-miterlimit:10;}.cls-11,.cls-4,.cls-5,.cls-6,.cls-7,.cls-8,.cls-9{stroke-width:3px;}.cls-11,.cls-5,.cls-6,.cls-7,.cls-8,.cls-9{stroke:#7d7d7d;}.cls-5,.cls-6{stroke-linecap:round;stroke-linejoin:round;}.cls-6{fill:#fff;}.cls-7{fill:#ccc;}.cls-8{fill:#dbdbdb;}.cls-9{fill:#f5f5f5;}.cls-10{fill:#f2f2f2;mix-blend-mode:darken;}.cls-12{fill:#7d7d7d;opacity:0.1;}</style></defs><title>EmptyAccess</title><g class="cls-1"><g id="Layer_1" data-name="Layer 1"><rect class="cls-2" x="264.75" y="61.75" width="47" height="12" rx="2.51"/><path class="cls-2" d="M283.25,104.25h10a0,0,0,0,1,0,0v5.82a4.18,4.18,0,0,1-4.18,4.18h-1.65a4.18,4.18,0,0,1-4.18-4.18v-5.82A0,0,0,0,1,283.25,104.25Z"/><circle class="cls-3" cx="128.64" cy="119.12" r="38.39"/><polygon class="cls-2" points="179.29 100.25 171.21 100.25 167.17 107.25 171.21 114.25 179.29 114.25 183.33 107.25 179.29 100.25"/><polygon class="cls-2" points="335.01 80.31 329.09 79.17 323.17 78.03 327.12 73.47 331.07 68.91 333.04 74.61 335.01 80.31"/><circle class="cls-4" cx="345.75" cy="129.75" r="5.5"/><circle class="cls-4" cx="110.75" cy="44.75" r="5.5"/><line class="cls-5" x1="61.5" y1="73.42" x2="55.25" y2="79.66"/><line class="cls-5" x1="55.25" y1="73.42" x2="61.5" y2="79.66"/><polyline class="cls-6" points="144.75 178.75 208.89 114.61 286.39 192.11"/><rect class="cls-7" x="178.43" y="224.37" width="20.43" height="12.89" transform="translate(28.1 -20.36) rotate(6.67)"/><rect class="cls-8" x="132.13" y="141.88" width="123.67" height="87.1" rx="4.26" transform="translate(22.86 -21.29) rotate(6.67)"/><rect class="cls-8" x="166.29" y="235.73" width="42.81" height="6.51" rx="2.48" transform="translate(29.05 -20.19) rotate(6.67)"/><path class="cls-9" d="M142,148.5H247.51a2.79,2.79,0,0,1,2.79,2.79v57.43a0,0,0,0,1,0,0H139.21a0,0,0,0,1,0,0V151.3A2.79,2.79,0,0,1,142,148.5Z" transform="translate(22.08 -21.42) rotate(6.67)"/><circle class="cls-9" cx="190.08" cy="218.54" r="2.69"/><polyline class="cls-6" points="228.25 240.25 295.75 172.75 351.25 228.25"/><polyline class="cls-6" points="43.25 233.25 109.75 166.75 194.25 251.25"/><polygon class="cls-10" points="259.25 209.25 280.25 203.25 296.25 209.25 312.25 202.25 333.87 210.87 296.25 172.25 259.25 209.25"/><polygon class="cls-10" points="85.25 191.25 96.25 197.25 111.25 189.25 125.25 195.25 134.25 191.25 110.25 167.25 85.25 191.25"/><polygon class="cls-10" points="190.57 131.93 206.25 134.25 214.25 132.25 228.09 133.09 209.25 114.25 190.57 131.93"/><path class="cls-5" d="M46.25,142.25h11s-2-7,8-5c0,0,2-16,19-5h19"/><path class="cls-6" d="M223.25,191.25h43.43s1.81-9.05-5.42-9.05c0,0,0-14.48-10.86-14.48s-12.67,9.05-12.67,9.05A7.93,7.93,0,0,0,232.3,175c-5.43,0-5.43,5.43-5.43,9,0,0-5.32-2.93-7.24,1.81-1.1,2.71,1.12,5,3.62,5.43"/><path class="cls-5" d="M282.84,100.08h10.9a0,0,0,0,1,0,0v9.46a4.65,4.65,0,0,1-4.65,4.65h-1.61a4.65,4.65,0,0,1-4.65-4.65v-9.46A0,0,0,0,1,282.84,100.08Z"/><line class="cls-11" x1="282.84" y1="104.57" x2="293.74" y2="104.57"/><line class="cls-11" x1="282.84" y1="109.06" x2="293.74" y2="109.06"/><path class="cls-11" d="M282.84,100.08s-18-19.88-18-31.42,10.26-23.41,23.41-23.41"/><path class="cls-11" d="M293.42,100.08s18-19.88,18-31.42S301.12,45.25,288,45.25"/><line class="cls-11" x1="266.17" y1="61.6" x2="310.42" y2="61.6"/><line class="cls-11" x1="266.17" y1="74.43" x2="310.42" y2="74.43"/><path class="cls-12" d="M293.42,100.08s18-19.88,18-31.42S301.12,45.25,288,45.25l-3.08.56c10.7,2.49,18.49,12.79,18.49,22.85,0,11-16.14,29.38-17.81,31.26Z"/><path class="cls-5" d="M293.88,51.37s5.37.88,7,6"/><line class="cls-6" x1="356.25" y1="233.25" x2="364.75" y2="241.75"/><line class="cls-6" x1="38.25" y1="238.25" x2="35.25" y2="241.25"/><line class="cls-6" x1="225.25" y1="243.25" x2="223.25" y2="245.25"/><line class="cls-6" x1="199.25" y1="256.25" x2="203.75" y2="260.75"/></g></g></svg>