<svg id="Layer_1" data-name="Layer 1" xmlns="http://www.w3.org/2000/svg" viewBox="0 0 96 96"><defs><style>.cls-1{opacity:0.5;}.cls-2{fill:#7d7d7d;}</style></defs><title>EmptyExtension</title><g class="cls-1"><path class="cls-2" d="M70.19,51.35H46.65V27.81a3.7,3.7,0,0,0-3.7-3.7H15.7a3.7,3.7,0,0,0-3.7,3.7V82.3A3.7,3.7,0,0,0,15.7,86H70.19a3.7,3.7,0,0,0,3.7-3.7V55.05A3.7,3.7,0,0,0,70.19,51.35ZM39.25,31.51V51.35H19.4V31.51ZM19.4,78.6V58.75H39.25V78.6Zm47.09,0H46.65V58.75H66.49Z"/><path class="cls-2" d="M82.3,12H58.08a3.7,3.7,0,0,0-3.7,3.7V39.92a3.7,3.7,0,0,0,3.7,3.7H82.3a3.7,3.7,0,0,0,3.7-3.7V15.7A3.7,3.7,0,0,0,82.3,12ZM78.6,36.22H61.78V19.4H78.6Z"/></g></svg>