<svg id="Layer_1" data-name="Layer 1" xmlns="http://www.w3.org/2000/svg" viewBox="0 0 96 96"><defs><style>.cls-1{fill:none;}.cls-2{opacity:0.5;}.cls-3{fill:#7d7d7d;}</style></defs><title>EmptyLicense</title><rect class="cls-1" width="96" height="96"/><g class="cls-2"><path class="cls-3" d="M36,46H60a4,4,0,0,0,0-8H36a4,4,0,0,0,0,8Zm0,16H48a4,4,0,0,0,0-8H36a4,4,0,0,0,0,8ZM78.8,23.2l-14-14a2.78,2.78,0,0,0-2-1H20A3.73,3.73,0,0,0,16,12V84a4.1,4.1,0,0,0,4,4H48a4,4,0,0,0,0-8H24V16H56V28a4,4,0,0,0,4,4H72V44a4,4,0,0,0,8,0V26A4,4,0,0,0,78.8,23.2ZM68,54a12,12,0,0,0-6,22.4V88l6-6,6,6V76.4A12,12,0,0,0,68,54Z"/><path class="cls-1" d="M0,0H96V96H0Z"/></g></svg>