<svg id="Layer_1" data-name="Layer 1" xmlns="http://www.w3.org/2000/svg" viewBox="0 0 96 96"><defs><style>.cls-1{opacity:0.7;}.cls-2{fill:#7d7d7d;}</style></defs><title>aa</title><g class="cls-1"><path class="cls-2" d="M17.1,8.2H78.9l.2.2a4.9,4.9,0,0,1,3.6,5.1q0,34.6,0,69.3a4.9,4.9,0,0,1-5.1,5H18.2a4.9,4.9,0,0,1-5-5q0-34.8,0-69.7a4.8,4.8,0,0,1,2.9-4.5ZM33.1,48H72.8v2.5H33.1V58H72.8v2.5H33.1v7.4H72.8v2.5H33.1V82.7H77.8V28.2H33.2v9.9H72.8v2.5H33.1ZM18.2,28.2V82.7H30.6V70.3H23.2V67.9h7.4V60.4H23.2V57.9h7.4V50.5H23.2V48h7.3V40.5H23.2V38h7.4V28.2Z"/></g></svg>