<svg id="Layer_1" data-name="Layer 1" xmlns="http://www.w3.org/2000/svg" viewBox="0 0 48 48" preserveAspectRatio="xMinYMid"><defs><style>.cls-1{fill:#7d7d7d;}.cls-2{fill:none;}</style></defs><title>aa</title><g id="Artwork"><path class="cls-1" d="M38,4H10A2,2,0,0,0,8,6V16a2,2,0,0,0,.6,1.4L18,26.8V34a2,2,0,0,0,.6,1.4l8,8A2,2,0,0,0,28,44a1.2,1.2,0,0,0,.8-.2A2,2,0,0,0,30,42V26.8l9.4-9.4A2,2,0,0,0,40,16V6A2,2,0,0,0,38,4ZM36,15.2l-9.4,9.4A2,2,0,0,0,26,26V37.2l-4-4V26a2,2,0,0,0-.6-1.4L12,15.2V8H36Z"/><rect class="cls-2" width="48" height="48"/></g></svg>