<svg id="Layer_1" data-name="Layer 1" xmlns="http://www.w3.org/2000/svg" viewBox="0 0 106.93 110.79"><defs><style>.cls-1{fill:#4cad4f;}.cls-2{fill:#fdfefd;}</style></defs><title>Artboard 11</title><path class="cls-1" d="M53.6,96A41.83,41.83,0,1,1,95.49,54.27,41.88,41.88,0,0,1,53.6,96ZM76.42,42.76a1.87,1.87,0,0,0-.56-1.23c-.57-.54-1.11-1.11-1.67-1.66-1.4-1.39-2-1.38-3.35,0Q60.09,50.65,49.33,61.42c-.51.52-.8.56-1.31,0-1.36-1.43-2.78-2.81-4.18-4.21l-8.46-8.46c-1.11-1.1-1.83-1.09-3,0l-1.66,1.67a1.68,1.68,0,0,0,0,2.76q8.32,8.34,16.66,16.65a1.59,1.59,0,0,0,2.54,0L75.81,44A2,2,0,0,0,76.42,42.76Z"/><path class="cls-2" d="M76.42,42.76A2,2,0,0,1,75.81,44L50,69.86a1.59,1.59,0,0,1-2.54,0q-8.34-8.31-16.66-16.65a1.68,1.68,0,0,1,0-2.76l1.66-1.67c1.13-1.12,1.85-1.13,3,0l8.46,8.46c1.4,1.4,2.82,2.78,4.18,4.21.51.55.8.51,1.31,0Q60.07,50.63,70.84,39.89c1.4-1.4,2-1.41,3.35,0,.56.55,1.1,1.12,1.67,1.66A1.87,1.87,0,0,1,76.42,42.76Z"/></svg>