<svg id="Layer_1" data-name="Layer 1" xmlns="http://www.w3.org/2000/svg" viewBox="0 0 48 48"><defs><style>.cls-1{fill:#bbb;}.cls-2{fill:none;}</style></defs><title>HostDisconnect</title><g id="Layer_2" data-name="Layer 2"><g id="Layer_1-2" data-name="Layer 1-2"><path class="cls-1" d="M24,21.75a8,8,0,1,1,8-8A8,8,0,0,1,24,21.75ZM24,25a18,18,0,0,0-13.5,6.5,2.06,2.06,0,0,0-.5,1.3v5.1a2,2,0,0,0,2,2H36a2,2,0,0,0,2-2v-5a1.91,1.91,0,0,0-.5-1.3A17.94,17.94,0,0,0,24,25ZM36.8,9.35a13.56,13.56,0,0,0-25.6,0,4.81,4.81,0,0,0-3,4.4,4.69,4.69,0,0,0,4.67,4.71h0a1,1,0,0,0,1-.88V11.26a10.49,10.49,0,0,1,20.4,0v6.19a.88.88,0,0,0,.3.7,4,4,0,0,1-3.9,3.8,1,1,0,0,0,0,2,5.85,5.85,0,0,0,5.9-5.6A4.81,4.81,0,0,0,40,13.85,5.4,5.4,0,0,0,36.8,9.35Z"/><path class="cls-2" d="M0,0H48V48H0Z"/></g></g></svg>