<svg id="4b5bb2a0-4e23-4d2b-9d8f-6a578d85ed94" data-name="Layer 1" xmlns="http://www.w3.org/2000/svg" viewBox="0 0 48 48"><defs><style>.\32 8ffcc49-7f6a-437b-865a-cb48620457a2{fill:#4c4;}.\31 3ddd0f1-414e-4a51-8f81-e638c9a0a01a{fill:none;}</style></defs><title>Icons host page 1.4</title><g id="30835f85-d31b-4c0f-857a-55fbc1d3c9d3" data-name="Layer 2"><g id="41090f7b-c035-4aca-9792-86e43a9595e3" data-name="Layer 1-2"><path class="28ffcc49-7f6a-437b-865a-cb48620457a2" d="M24,21.8a8,8,0,1,1,8-8A8,8,0,0,1,24,21.8ZM24,25a18,18,0,0,0-13.5,6.5,2.1,2.1,0,0,0-.5,1.3v5.1a2,2,0,0,0,2,2H36a2,2,0,0,0,2-2v-5a1.9,1.9,0,0,0-.5-1.3A17.9,17.9,0,0,0,24,25ZM36.8,9.4a13.6,13.6,0,0,0-25.6,0,4.8,4.8,0,0,0-3,4.4,4.7,4.7,0,0,0,4.7,4.7h0a.9.9,0,0,0,1-1V11.3a10.5,10.5,0,0,1,20.4,0v6.2a.9.9,0,0,0,.3.7,4,4,0,0,1-3.9,3.8,1,1,0,0,0,0,2,5.9,5.9,0,0,0,5.9-5.6A4.8,4.8,0,0,0,40,13.9,5.4,5.4,0,0,0,36.8,9.4Z"/><path class="13ddd0f1-414e-4a51-8f81-e638c9a0a01a" d="M0,0H48V48H0Z"/></g></g></svg>