<svg width="1380" height="153" viewBox="0 0 1380 153" fill="none" xmlns="http://www.w3.org/2000/svg">
<path d="M111.05 41.16L131.25 61.35H60.5801V41.16H111.05Z" fill="#1CB8B8"/>
<path d="M0 41.16V111.83L20.19 132.03V61.35H40.38V41.16H0Z" fill="#1CB8B8"/>
<path d="M171.63 20.97L191.82 41.16V111.83H171.63H80.7701L60.5801 91.64H171.63V20.97Z" fill="#1CB8B8"/>
<path d="M60.5799 91.64L40.3799 71.45V61.36H60.5799V91.64Z" fill="white"/>
<path d="M40.3799 0.779999V41.16H60.5799V20.97H171.63L151.44 0.779999H40.3799Z" fill="white"/>
<path d="M60.5699 41.16H40.3799V61.35H60.5699V41.16Z" fill="white"/>
<path d="M131.25 132.03H20.1899L40.3799 152.22H151.44V81.55L131.25 61.35V132.03Z" fill="white"/>
<path d="M240.95 128.23C233.35 125.7 227.38 122.41 223.04 118.38L228.78 106.28C232.91 110 238.21 113.03 244.68 115.36C251.14 117.69 257.78 118.85 264.61 118.85C273.61 118.85 280.33 117.33 284.77 114.27C289.22 111.22 291.44 107.16 291.44 102.09C291.44 98.37 290.22 95.34 287.8 93.02C285.37 90.69 282.37 88.91 278.8 87.67C275.23 86.43 270.19 85.04 263.68 83.48C255.51 81.52 248.92 79.55 243.91 77.59C238.89 75.62 234.6 72.6 231.04 68.51C227.47 64.43 225.69 58.92 225.69 51.99C225.69 46.2 227.21 40.98 230.27 36.32C233.32 31.67 237.95 27.95 244.15 25.15C250.35 22.36 258.06 20.96 267.26 20.96C273.67 20.96 279.98 21.79 286.18 23.44C292.38 25.09 297.71 27.47 302.15 30.58L297.03 42.99C292.48 40.1 287.62 37.9 282.45 36.4C277.28 34.9 272.21 34.15 267.25 34.15C258.46 34.15 251.87 35.75 247.48 38.96C243.08 42.17 240.89 46.31 240.89 51.37C240.89 55.09 242.13 58.12 244.61 60.44C247.09 62.77 250.17 64.58 253.84 65.87C257.51 67.17 262.5 68.53 268.81 69.98C276.98 71.94 283.54 73.91 288.51 75.87C293.47 77.84 297.74 80.83 301.31 84.87C304.88 88.9 306.66 94.33 306.66 101.16C306.66 106.85 305.11 112.04 302 116.75C298.9 121.46 294.19 125.18 287.89 127.92C281.58 130.66 273.83 132.03 264.62 132.03C256.45 132.03 248.57 130.76 240.97 128.23" fill="white"/>
<path d="M338.03 126.29C331.46 122.67 326.32 117.68 322.6 111.32C318.88 104.96 317.02 97.75 317.02 89.68C317.02 81.61 318.88 74.4 322.6 68.04C326.32 61.68 331.47 56.72 338.03 53.15C344.6 49.58 352.07 47.8 360.44 47.8C367.88 47.8 374.53 49.3 380.37 52.3C386.21 55.3 390.74 59.65 393.94 65.33L382.62 72.62C380.04 68.69 376.83 65.74 373 63.78C369.17 61.82 364.94 60.83 360.28 60.83C354.9 60.83 350.07 62.02 345.78 64.4C341.49 66.78 338.13 70.16 335.7 74.56C333.27 78.96 332.06 84 332.06 89.68C332.06 95.36 333.27 100.56 335.7 104.96C338.13 109.36 341.49 112.74 345.78 115.12C350.07 117.5 354.91 118.68 360.28 118.68C364.93 118.68 369.17 117.7 373 115.74C376.83 113.78 380.03 110.83 382.62 106.9L393.94 114.04C390.73 119.73 386.21 124.09 380.37 127.14C374.53 130.19 367.89 131.72 360.44 131.72C352.06 131.72 344.59 129.91 338.03 126.29Z" fill="white"/>
<path d="M433.9 51.53C438.96 49.05 445.12 47.81 452.36 47.81V62.24C451.53 62.14 450.4 62.09 448.95 62.09C440.89 62.09 434.55 64.49 429.95 69.3C425.35 74.11 423.05 80.96 423.05 89.85V130.8H408.16V48.58H422.43V62.38C425.01 57.62 428.84 54.01 433.91 51.52" fill="white"/>
<path d="M485.11 63.94C481.02 66.32 477.84 69.65 475.57 73.94C473.29 78.23 472.16 83.22 472.16 88.91V90.46L524.74 80.53C523.39 74.53 520.4 69.67 515.74 65.95C511.09 62.23 505.5 60.37 498.99 60.37C493.82 60.37 489.19 61.56 485.11 63.94ZM526.14 108.76L534.2 118.38C530.58 122.72 526.01 126.03 520.47 128.3C514.94 130.58 508.76 131.71 501.94 131.71C493.25 131.71 485.55 129.93 478.83 126.36C472.11 122.79 466.91 117.81 463.24 111.39C459.57 104.98 457.74 97.74 457.74 89.67C457.74 81.6 459.52 74.52 463.09 68.11C466.66 61.7 471.57 56.71 477.82 53.14C484.08 49.57 491.13 47.79 498.99 47.79C506.43 47.79 513.21 49.47 519.31 52.83C525.41 56.19 530.27 60.92 533.89 67.02C537.51 73.12 539.37 80.15 539.47 88.11L474.17 100.83C476.24 106.52 479.73 110.91 484.64 114.01C489.55 117.11 495.47 118.66 502.4 118.66C512.22 118.66 520.13 115.35 526.13 108.73" fill="white"/>
<path d="M577.04 63.94C572.95 66.32 569.77 69.65 567.5 73.94C565.22 78.23 564.09 83.22 564.09 88.91V90.46L616.67 80.53C615.32 74.53 612.33 69.67 607.67 65.95C603.02 62.23 597.43 60.37 590.92 60.37C585.75 60.37 581.12 61.56 577.04 63.94ZM618.07 108.76L626.13 118.38C622.51 122.72 617.94 126.03 612.4 128.3C606.87 130.58 600.69 131.71 593.87 131.71C585.18 131.71 577.48 129.93 570.76 126.36C564.04 122.79 558.84 117.81 555.17 111.39C551.5 104.98 549.67 97.74 549.67 89.67C549.67 81.6 551.45 74.52 555.02 68.11C558.59 61.7 563.5 56.71 569.75 53.14C576.01 49.57 583.06 47.79 590.92 47.79C598.36 47.79 605.14 49.47 611.24 52.83C617.34 56.19 622.2 60.92 625.82 67.02C629.44 73.12 631.3 80.15 631.4 88.11L566.1 100.83C568.17 106.52 571.66 110.91 576.57 114.01C581.48 117.11 587.4 118.66 594.33 118.66C604.15 118.66 612.06 115.35 618.06 108.73" fill="white"/>
<path d="M715.72 56.88C721.87 62.93 724.95 71.8 724.95 83.48V130.79H710.06V85.19C710.06 77.23 708.15 71.23 704.32 67.2C700.49 63.17 695.01 61.15 687.88 61.15C679.82 61.15 673.46 63.5 668.8 68.21C664.15 72.92 661.82 79.66 661.82 88.45V130.79H646.93V48.58H661.2V60.99C664.2 56.75 668.26 53.49 673.38 51.22C678.5 48.95 684.32 47.81 690.83 47.81C701.27 47.81 709.57 50.83 715.72 56.88Z" fill="white"/>
<path d="M769.62 124.81C760.88 120 754.03 113.39 749.07 104.96C744.11 96.53 741.63 87.04 741.63 76.5C741.63 65.96 744.11 56.47 749.07 48.04C754.03 39.61 760.91 33 769.7 28.19C778.49 23.38 788.31 20.98 799.17 20.98C807.65 20.98 815.4 22.4 822.44 25.24C829.47 28.09 835.47 32.3 840.43 37.88L830.35 47.65C822.18 39.07 811.99 34.78 799.79 34.78C791.72 34.78 784.43 36.59 777.92 40.21C771.4 43.83 766.31 48.82 762.64 55.18C758.97 61.54 757.14 68.65 757.14 76.51C757.14 84.37 758.97 91.48 762.64 97.84C766.31 104.2 771.4 109.19 777.92 112.81C784.43 116.43 791.72 118.24 799.79 118.24C811.89 118.24 822.07 113.9 830.35 105.21L840.43 114.98C835.47 120.56 829.44 124.81 822.36 127.7C815.28 130.6 807.49 132.04 799.02 132.04C788.16 132.04 778.36 129.63 769.63 124.83" fill="white"/>
<path d="M904.53 115.04C908.72 112.61 912 109.2 914.38 104.8C916.76 100.4 917.95 95.36 917.95 89.68C917.95 84 916.76 78.95 914.38 74.56C912 70.17 908.72 66.78 904.53 64.4C900.34 62.02 895.61 60.83 890.34 60.83C885.07 60.83 880.34 62.02 876.15 64.4C871.96 66.78 868.65 70.16 866.23 74.56C863.8 78.96 862.58 84 862.58 89.68C862.58 95.36 863.79 100.41 866.23 104.8C868.66 109.2 871.97 112.61 876.15 115.04C880.34 117.47 885.07 118.68 890.34 118.68C895.61 118.68 900.34 117.47 904.53 115.04ZM868.32 126.29C861.81 122.67 856.71 117.68 853.04 111.32C849.37 104.96 847.53 97.75 847.53 89.68C847.53 81.61 849.36 74.4 853.04 68.04C856.71 61.68 861.8 56.72 868.32 53.15C874.84 49.58 882.18 47.8 890.35 47.8C898.52 47.8 905.83 49.58 912.3 53.15C918.76 56.72 923.83 61.68 927.5 68.04C931.17 74.4 933.01 81.61 933.01 89.68C933.01 97.75 931.17 104.96 927.5 111.32C923.83 117.68 918.76 122.67 912.3 126.29C905.84 129.91 898.52 131.72 890.35 131.72C882.18 131.72 874.84 129.91 868.32 126.29Z" fill="white"/>
<path d="M1017.98 56.88C1024.13 62.93 1027.21 71.8 1027.21 83.48V130.79H1012.32V85.19C1012.32 77.23 1010.41 71.23 1006.58 67.2C1002.75 63.17 997.27 61.15 990.14 61.15C982.08 61.15 975.71 63.5 971.06 68.21C966.41 72.92 964.08 79.66 964.08 88.45V130.79H949.19V48.58H963.46V60.99C966.46 56.75 970.52 53.49 975.64 51.22C980.76 48.95 986.58 47.81 993.09 47.81C1003.53 47.81 1011.83 50.83 1017.98 56.88Z" fill="white"/>
<path d="M1114.76 56.88C1120.91 62.93 1123.99 71.8 1123.99 83.48V130.79H1109.1V85.19C1109.1 77.23 1107.18 71.23 1103.36 67.2C1099.53 63.17 1094.05 61.15 1086.92 61.15C1078.86 61.15 1072.5 63.5 1067.84 68.21C1063.19 72.92 1060.86 79.66 1060.86 88.45V130.79H1045.97V48.58H1060.24V60.99C1063.24 56.75 1067.3 53.49 1072.42 51.22C1077.54 48.95 1083.36 47.81 1089.87 47.81C1100.31 47.81 1108.61 50.83 1114.76 56.88Z" fill="white"/>
<path d="M1166.96 63.94C1162.87 66.32 1159.69 69.65 1157.42 73.94C1155.14 78.23 1154.01 83.22 1154.01 88.91V90.46L1206.59 80.53C1205.24 74.53 1202.25 69.67 1197.59 65.95C1192.94 62.23 1187.35 60.37 1180.84 60.37C1175.67 60.37 1171.04 61.56 1166.96 63.94ZM1207.98 108.76L1216.04 118.38C1212.42 122.72 1207.85 126.03 1202.31 128.3C1196.78 130.58 1190.6 131.71 1183.78 131.71C1175.09 131.71 1167.39 129.93 1160.67 126.36C1153.95 122.79 1148.75 117.81 1145.08 111.39C1141.41 104.98 1139.58 97.74 1139.58 89.67C1139.58 81.6 1141.36 74.52 1144.93 68.11C1148.5 61.7 1153.41 56.71 1159.66 53.14C1165.92 49.57 1172.97 47.79 1180.83 47.79C1188.27 47.79 1195.05 49.47 1201.15 52.83C1207.25 56.19 1212.11 60.92 1215.73 67.02C1219.35 73.12 1221.21 80.15 1221.31 88.11L1156.01 100.83C1158.08 106.52 1161.57 110.91 1166.48 114.01C1171.39 117.11 1177.31 118.66 1184.24 118.66C1194.06 118.66 1201.97 115.35 1207.97 108.73" fill="white"/>
<path d="M1252.53 126.29C1245.96 122.67 1240.82 117.68 1237.1 111.32C1233.38 104.96 1231.52 97.75 1231.52 89.68C1231.52 81.61 1233.38 74.4 1237.1 68.04C1240.82 61.68 1245.96 56.72 1252.53 53.15C1259.1 49.58 1266.57 47.8 1274.94 47.8C1282.38 47.8 1289.03 49.3 1294.87 52.3C1300.71 55.3 1305.24 59.65 1308.44 65.33L1297.12 72.62C1294.54 68.69 1291.33 65.74 1287.5 63.78C1283.67 61.82 1279.44 60.83 1274.78 60.83C1269.4 60.83 1264.57 62.02 1260.28 64.4C1255.99 66.78 1252.63 70.16 1250.2 74.56C1247.77 78.96 1246.56 84 1246.56 89.68C1246.56 95.36 1247.77 100.56 1250.2 104.96C1252.63 109.36 1255.99 112.74 1260.28 115.12C1264.57 117.5 1269.41 118.68 1274.78 118.68C1279.43 118.68 1283.67 117.7 1287.5 115.74C1291.33 113.78 1294.53 110.83 1297.12 106.9L1308.44 114.04C1305.23 119.73 1300.71 124.09 1294.87 127.14C1289.03 130.19 1282.39 131.72 1274.94 131.72C1266.56 131.72 1259.09 129.91 1252.53 126.29Z" fill="white"/>
<path d="M1365.96 125.98C1363.79 127.84 1361.1 129.26 1357.9 130.25C1354.69 131.23 1351.38 131.72 1347.97 131.72C1339.7 131.72 1333.28 129.5 1328.74 125.05C1324.19 120.6 1321.91 114.25 1321.91 105.97V30.59H1336.8V48.58H1360.38V60.83H1336.8V105.34C1336.8 109.79 1337.91 113.2 1340.13 115.58C1342.35 117.96 1345.53 119.15 1349.67 119.15C1354.22 119.15 1358.1 117.86 1361.3 115.27L1365.95 125.97L1365.96 125.98Z" fill="white"/>
<path d="M1371.85 61.91C1368.15 61.97 1364.79 58.64 1364.88 54.82C1364.79 51 1368.15 47.62 1371.85 47.7C1375.55 47.61 1378.85 51 1378.77 54.82C1378.86 58.64 1375.56 61.97 1371.85 61.91ZM1371.85 49.14C1368.81 49.14 1366.37 51.64 1366.37 54.79C1366.37 57.94 1368.81 60.47 1371.85 60.47C1374.89 60.47 1377.33 57.97 1377.33 54.79C1377.33 51.61 1374.86 49.14 1371.85 49.14ZM1375.44 58.41H1373.57L1371.76 56H1370.73V58.41H1369.07V51.21H1371.97C1373.49 51.21 1374.61 52.16 1374.61 53.62C1374.61 54.54 1374.21 55.2 1373.43 55.63L1375.44 58.41ZM1370.73 54.56H1371.94C1372.51 54.56 1372.92 54.19 1372.92 53.64C1372.92 53.07 1372.52 52.66 1371.94 52.66H1370.73V54.55V54.56Z" fill="white"/>
</svg>
