<svg id="Layer_1" xmlns="http://www.w3.org/2000/svg" viewBox="0 0 1380 153">
  <defs>
    <style>
      .cls-1 {
        fill: #19bbb7;
      }

      .cls-2 {
        fill: #001c2d;
      }
    </style>
  </defs>
  <g>
    <polygon class="cls-1" points="111.05 41.16 131.25 61.35 60.58 61.35 60.58 41.16 111.05 41.16"/>
    <polygon class="cls-1" points="0 41.16 0 111.83 20.19 132.03 20.19 61.35 40.38 61.35 40.38 41.16 0 41.16"/>
    <polygon class="cls-1" points="171.63 20.97 191.82 41.16 191.82 111.83 171.63 111.83 80.77 111.83 60.58 91.64 171.63 91.64 171.63 20.97"/>
    <polygon class="cls-2" points="60.58 91.64 40.38 71.45 40.38 61.36 60.58 61.36 60.58 91.64"/>
    <polygon class="cls-2" points="40.38 .78 40.38 41.16 60.58 41.16 60.58 20.97 171.63 20.97 151.44 .78 40.38 .78"/>
    <rect class="cls-2" x="40.38" y="41.16" width="20.19" height="20.19"/>
    <polygon class="cls-2" points="131.25 132.03 20.19 132.03 40.38 152.22 151.44 152.22 151.44 81.55 131.25 61.35 131.25 132.03"/>
    <g>
      <path class="cls-2" d="M240.95,128.23c-7.6-2.53-13.57-5.82-17.91-9.85l5.74-12.1c4.13,3.72,9.43,6.75,15.9,9.08,6.46,2.33,13.1,3.49,19.93,3.49,9,0,15.72-1.52,20.16-4.58,4.45-3.05,6.67-7.11,6.67-12.18,0-3.72-1.22-6.75-3.64-9.07-2.43-2.33-5.43-4.11-9-5.35-3.57-1.24-8.61-2.63-15.12-4.19-8.17-1.96-14.76-3.93-19.77-5.89-5.02-1.97-9.31-4.99-12.87-9.08-3.57-4.08-5.35-9.59-5.35-16.52,0-5.79,1.52-11.01,4.58-15.67,3.05-4.65,7.68-8.37,13.88-11.17s13.91-4.19,23.11-4.19c6.41,0,12.72.83,18.92,2.48,6.2,1.65,11.53,4.03,15.97,7.14l-5.12,12.41c-4.55-2.89-9.41-5.09-14.58-6.59-5.17-1.5-10.24-2.25-15.2-2.25-8.79,0-15.38,1.6-19.77,4.81-4.4,3.21-6.59,7.35-6.59,12.41,0,3.72,1.24,6.75,3.72,9.07,2.48,2.33,5.56,4.14,9.23,5.43,3.67,1.3,8.66,2.66,14.97,4.11,8.17,1.96,14.73,3.93,19.7,5.89,4.96,1.97,9.23,4.96,12.8,9,3.57,4.03,5.35,9.46,5.35,16.29,0,5.69-1.55,10.88-4.66,15.59-3.1,4.71-7.81,8.43-14.11,11.17-6.31,2.74-14.06,4.11-23.27,4.11-8.17,0-16.05-1.27-23.65-3.8"/>
      <path class="cls-2" d="M338.03,126.29c-6.57-3.62-11.71-8.61-15.43-14.97-3.72-6.36-5.58-13.57-5.58-21.64s1.86-15.28,5.58-21.64c3.72-6.36,8.87-11.32,15.43-14.89,6.57-3.57,14.04-5.35,22.41-5.35,7.44,0,14.09,1.5,19.93,4.5,5.84,3,10.37,7.35,13.57,13.03l-11.32,7.29c-2.58-3.93-5.79-6.88-9.62-8.84-3.83-1.96-8.06-2.95-12.72-2.95-5.38,0-10.21,1.19-14.5,3.57-4.29,2.38-7.65,5.76-10.08,10.16-2.43,4.4-3.64,9.44-3.64,15.12s1.21,10.88,3.64,15.28c2.43,4.4,5.79,7.78,10.08,10.16,4.29,2.38,9.13,3.56,14.5,3.56,4.65,0,8.89-.98,12.72-2.94,3.83-1.96,7.03-4.91,9.62-8.84l11.32,7.14c-3.21,5.69-7.73,10.05-13.57,13.1-5.84,3.05-12.48,4.58-19.93,4.58-8.38,0-15.85-1.81-22.41-5.43"/>
      <path class="cls-2" d="M433.9,51.53c5.06-2.48,11.22-3.72,18.46-3.72v14.43c-.83-.1-1.96-.15-3.41-.15-8.06,0-14.4,2.4-19,7.21-4.6,4.81-6.9,11.66-6.9,20.55v40.95h-14.89V48.58h14.27v13.8c2.58-4.76,6.41-8.37,11.48-10.86"/>
      <path class="cls-2" d="M485.11,63.94c-4.09,2.38-7.27,5.71-9.54,10-2.28,4.29-3.41,9.28-3.41,14.97v1.55l52.58-9.93c-1.35-6-4.34-10.86-9-14.58-4.65-3.72-10.24-5.58-16.75-5.58-5.17,0-9.8,1.19-13.88,3.57M526.14,108.76l8.06,9.62c-3.62,4.34-8.19,7.65-13.73,9.92-5.53,2.28-11.71,3.41-18.53,3.41-8.69,0-16.39-1.78-23.11-5.35-6.72-3.57-11.92-8.55-15.59-14.97-3.67-6.41-5.5-13.65-5.5-21.72s1.78-15.15,5.35-21.56c3.57-6.41,8.48-11.4,14.73-14.97,6.26-3.57,13.31-5.35,21.17-5.35,7.44,0,14.22,1.68,20.32,5.04,6.1,3.36,10.96,8.09,14.58,14.19,3.62,6.1,5.48,13.13,5.58,21.09l-65.3,12.72c2.07,5.69,5.56,10.08,10.47,13.18,4.91,3.1,10.83,4.65,17.76,4.65,9.82,0,17.73-3.31,23.73-9.93"/>
      <path class="cls-2" d="M577.04,63.94c-4.09,2.38-7.27,5.71-9.54,10-2.28,4.29-3.41,9.28-3.41,14.97v1.55l52.58-9.93c-1.35-6-4.34-10.86-9-14.58-4.65-3.72-10.24-5.58-16.75-5.58-5.17,0-9.8,1.19-13.88,3.57M618.07,108.76l8.06,9.62c-3.62,4.34-8.19,7.65-13.73,9.92-5.53,2.28-11.71,3.41-18.53,3.41-8.69,0-16.39-1.78-23.11-5.35-6.72-3.57-11.92-8.55-15.59-14.97-3.67-6.41-5.5-13.65-5.5-21.72s1.78-15.15,5.35-21.56c3.57-6.41,8.48-11.4,14.73-14.97,6.26-3.57,13.31-5.35,21.17-5.35,7.44,0,14.22,1.68,20.32,5.04,6.1,3.36,10.96,8.09,14.58,14.19,3.62,6.1,5.48,13.13,5.58,21.09l-65.3,12.72c2.07,5.69,5.56,10.08,10.47,13.18,4.91,3.1,10.83,4.65,17.76,4.65,9.82,0,17.73-3.31,23.73-9.93"/>
      <path class="cls-2" d="M715.72,56.88c6.15,6.05,9.23,14.92,9.23,26.6v47.31h-14.89v-45.6c0-7.96-1.91-13.96-5.74-17.99-3.83-4.03-9.31-6.05-16.44-6.05-8.06,0-14.42,2.35-19.08,7.06-4.65,4.71-6.98,11.45-6.98,20.24v42.34h-14.89V48.58h14.27v12.41c3-4.24,7.06-7.5,12.18-9.77,5.12-2.27,10.94-3.41,17.45-3.41,10.44,0,18.74,3.02,24.89,9.07"/>
      <path class="cls-2" d="M769.62,124.81c-8.74-4.81-15.59-11.42-20.55-19.85-4.96-8.43-7.44-17.92-7.44-28.46s2.48-20.03,7.44-28.46c4.96-8.43,11.84-15.04,20.63-19.85,8.79-4.81,18.61-7.21,29.47-7.21,8.48,0,16.23,1.42,23.27,4.26,7.03,2.85,13.03,7.06,17.99,12.64l-10.08,9.77c-8.17-8.58-18.36-12.87-30.56-12.87-8.07,0-15.36,1.81-21.87,5.43-6.52,3.62-11.61,8.61-15.28,14.97-3.67,6.36-5.5,13.47-5.5,21.33s1.83,14.97,5.5,21.33c3.67,6.36,8.76,11.35,15.28,14.97,6.51,3.62,13.8,5.43,21.87,5.43,12.1,0,22.28-4.34,30.56-13.03l10.08,9.77c-4.96,5.58-10.99,9.83-18.07,12.72-7.08,2.9-14.87,4.34-23.34,4.34-10.86,0-20.66-2.41-29.39-7.21"/>
      <path class="cls-2" d="M904.53,115.04c4.19-2.43,7.47-5.84,9.85-10.24,2.38-4.4,3.57-9.44,3.57-15.12s-1.19-10.73-3.57-15.12c-2.38-4.39-5.66-7.78-9.85-10.16-4.19-2.38-8.92-3.57-14.19-3.57s-10,1.19-14.19,3.57c-4.19,2.38-7.5,5.76-9.92,10.16-2.43,4.4-3.65,9.44-3.65,15.12s1.21,10.73,3.65,15.12c2.43,4.4,5.74,7.81,9.92,10.24,4.19,2.43,8.92,3.64,14.19,3.64s10-1.21,14.19-3.64M868.32,126.29c-6.51-3.62-11.61-8.61-15.28-14.97-3.67-6.36-5.51-13.57-5.51-21.64s1.83-15.28,5.51-21.64c3.67-6.36,8.76-11.32,15.28-14.89,6.52-3.57,13.86-5.35,22.03-5.35s15.48,1.78,21.95,5.35c6.46,3.57,11.53,8.53,15.2,14.89,3.67,6.36,5.51,13.57,5.51,21.64s-1.84,15.28-5.51,21.64c-3.67,6.36-8.74,11.35-15.2,14.97-6.46,3.62-13.78,5.43-21.95,5.43s-15.51-1.81-22.03-5.43"/>
      <path class="cls-2" d="M1017.98,56.88c6.15,6.05,9.23,14.92,9.23,26.6v47.31h-14.89v-45.6c0-7.96-1.91-13.96-5.74-17.99-3.83-4.03-9.31-6.05-16.44-6.05-8.06,0-14.43,2.35-19.08,7.06-4.65,4.71-6.98,11.45-6.98,20.24v42.34h-14.89V48.58h14.27v12.41c3-4.24,7.06-7.5,12.18-9.77,5.12-2.27,10.94-3.41,17.45-3.41,10.44,0,18.74,3.02,24.89,9.07"/>
      <path class="cls-2" d="M1114.76,56.88c6.15,6.05,9.23,14.92,9.23,26.6v47.31h-14.89v-45.6c0-7.96-1.92-13.96-5.74-17.99-3.83-4.03-9.31-6.05-16.44-6.05-8.06,0-14.42,2.35-19.08,7.06-4.65,4.71-6.98,11.45-6.98,20.24v42.34h-14.89V48.58h14.27v12.41c3-4.24,7.06-7.5,12.18-9.77,5.12-2.27,10.94-3.41,17.45-3.41,10.44,0,18.74,3.02,24.89,9.07"/>
      <path class="cls-2" d="M1166.96,63.94c-4.09,2.38-7.27,5.71-9.54,10-2.28,4.29-3.41,9.28-3.41,14.97v1.55l52.58-9.93c-1.35-6-4.34-10.86-9-14.58-4.65-3.72-10.24-5.58-16.75-5.58-5.17,0-9.8,1.19-13.88,3.57M1207.98,108.76l8.06,9.62c-3.62,4.34-8.19,7.65-13.73,9.92-5.53,2.28-11.71,3.41-18.53,3.41-8.69,0-16.39-1.78-23.11-5.35-6.72-3.57-11.92-8.55-15.59-14.97-3.67-6.41-5.5-13.65-5.5-21.72s1.78-15.15,5.35-21.56c3.57-6.41,8.48-11.4,14.73-14.97,6.26-3.57,13.31-5.35,21.17-5.35,7.44,0,14.22,1.68,20.32,5.04,6.1,3.36,10.96,8.09,14.58,14.19,3.62,6.1,5.48,13.13,5.58,21.09l-65.3,12.72c2.07,5.69,5.56,10.08,10.47,13.18,4.91,3.1,10.83,4.65,17.76,4.65,9.82,0,17.73-3.31,23.73-9.93"/>
      <path class="cls-2" d="M1252.53,126.29c-6.57-3.62-11.71-8.61-15.43-14.97-3.72-6.36-5.58-13.57-5.58-21.64s1.86-15.28,5.58-21.64c3.72-6.36,8.86-11.32,15.43-14.89,6.57-3.57,14.04-5.35,22.41-5.35,7.44,0,14.09,1.5,19.93,4.5,5.84,3,10.37,7.35,13.57,13.03l-11.32,7.29c-2.58-3.93-5.79-6.88-9.62-8.84-3.83-1.96-8.06-2.95-12.72-2.95-5.38,0-10.21,1.19-14.5,3.57-4.29,2.38-7.65,5.76-10.08,10.16-2.43,4.4-3.64,9.44-3.64,15.12s1.21,10.88,3.64,15.28c2.43,4.4,5.79,7.78,10.08,10.16,4.29,2.38,9.13,3.56,14.5,3.56,4.65,0,8.89-.98,12.72-2.94,3.83-1.96,7.03-4.91,9.62-8.84l11.32,7.14c-3.21,5.69-7.73,10.05-13.57,13.1-5.84,3.05-12.48,4.58-19.93,4.58-8.38,0-15.85-1.81-22.41-5.43"/>
      <path class="cls-2" d="M1365.96,125.98c-2.17,1.86-4.86,3.28-8.06,4.27-3.21.98-6.52,1.47-9.93,1.47-8.27,0-14.69-2.22-19.23-6.67-4.55-4.45-6.83-10.8-6.83-19.08V30.59h14.89v17.99h23.58v12.25h-23.58v44.51c0,4.45,1.11,7.86,3.33,10.24,2.22,2.38,5.4,3.57,9.54,3.57,4.55,0,8.43-1.29,11.63-3.88l4.65,10.7Z"/>
    </g>
  </g>
  <path class="cls-2" d="M1371.85,61.91c-3.7.06-7.06-3.27-6.97-7.09-.09-3.82,3.27-7.2,6.97-7.12,3.7-.09,7,3.3,6.92,7.12.09,3.82-3.21,7.15-6.92,7.09ZM1371.85,49.14c-3.04,0-5.48,2.5-5.48,5.65s2.44,5.68,5.48,5.68,5.48-2.5,5.48-5.68-2.47-5.65-5.48-5.65ZM1375.44,58.41h-1.87l-1.81-2.41h-1.03v2.41h-1.66v-7.2h2.9c1.52,0,2.64.95,2.64,2.41,0,.92-.4,1.58-1.18,2.01l2.01,2.78ZM1370.73,54.56h1.21c.57,0,.98-.37.98-.92,0-.57-.4-.98-.98-.98h-1.21v1.89Z"/>
</svg>
