<svg id="Layer_1" data-name="Layer 1" xmlns="http://www.w3.org/2000/svg" viewBox="0 0 48 48"><defs><style>.cls-1{fill:none;}.cls-2{fill:#bbb;}</style></defs><title>MeetingGuestDisconnect</title><g id="Layer_1-2" data-name="Layer 1"><path class="cls-1" d="M0,0H48V48H0Z"/><path class="cls-2" d="M16,23.75a6,6,0,1,1,6-6A6,6,0,0,1,16,23.75Zm-9.5,6.9A1.9,1.9,0,0,0,6,32v5.8a2,2,0,0,0,2,2H24a2,2,0,0,0,2-2V32a2.11,2.11,0,0,0-.5-1.3,12.28,12.28,0,0,0-9.5-4.9A12.28,12.28,0,0,0,6.5,30.65ZM32,11.75a6,6,0,1,0,6,6A6,6,0,0,0,32,11.75Zm-2.4,28H40a2,2,0,0,0,2-2V32a2.11,2.11,0,0,0-.5-1.3,12.28,12.28,0,0,0-9.5-4.9,12.27,12.27,0,0,0-4.6,1c.4.4.8.9,1.2,1.3a5.94,5.94,0,0,1,1.4,3.8v5.9A4.48,4.48,0,0,1,29.6,39.75Z"/></g></svg>