<svg id="Layer_1" data-name="Layer 1" xmlns="http://www.w3.org/2000/svg" viewBox="0 0 48 48"><defs><style>.cls-1{fill:none;}.cls-2{fill:#4c4;}</style></defs><title>aa</title><g id="Layer_1-2" data-name="Layer 1"><path class="cls-1" d="M0,0H48V48H0Z"/><path class="cls-2" d="M16,23.8a6,6,0,1,1,6-6A6,6,0,0,1,16,23.8ZM6.5,30.6A1.9,1.9,0,0,0,6,32v5.8a2,2,0,0,0,2,2H24a2,2,0,0,0,2-2V32a2.1,2.1,0,0,0-.5-1.3A12.3,12.3,0,0,0,16,25.8,12.3,12.3,0,0,0,6.5,30.6ZM32,11.8a6,6,0,1,0,6,6A6,6,0,0,0,32,11.8Zm-2.4,28H40a2,2,0,0,0,2-2V32a2.1,2.1,0,0,0-.5-1.3A12.3,12.3,0,0,0,32,25.8a12.3,12.3,0,0,0-4.6,1l1.2,1.3A5.9,5.9,0,0,1,30,31.9v5.9A4.5,4.5,0,0,1,29.6,39.8Z"/></g></svg>