<svg id="Layer_1" data-name="Layer 1" xmlns="http://www.w3.org/2000/svg" viewBox="0 0 96 96"><defs><style>.cls-1{opacity:0.5;}.cls-2{fill:#7d7d7d;}</style></defs><title>multiselect</title><g class="cls-1"><path class="cls-2" d="M5.34,91V65.57c.34,0,.65-.06,1-.06,7.8,0,15.6,0,23.4,0,.95,0,1.2.3,1.15,1.18-.07,1.13,0,2.25,0,3.61l3-2.19,2.54,3.39c-1.47,1.11-2.88,2.25-4.37,3.27A2.37,2.37,0,0,0,30.81,77c.07,4.28,0,8.56,0,12.85V91ZM18.15,79.8c2.8-2.09,5.43-4,8.05-6a.91.91,0,0,0,.33-.56c0-1.12,0-2.23,0-3.35H9.62V86.73H26.49V78.89L18,85.23l-5.53-5.52,3-3Z"/><path class="cls-2" d="M5.34,31.4V6H30.79v4.7l3-2.22,2.54,3.4c-1.58,1.19-3.06,2.35-4.61,3.44a1.89,1.89,0,0,0-.92,1.79c0,4.49,0,9,0,13.45,0,.66-.15.93-.88.93-7.93,0-15.87,0-23.8,0C5.91,31.47,5.66,31.43,5.34,31.4Zm4.25-4.28H26.48V19.3l-8.43,6.3-5.5-5.47,2.93-3,2.69,3.09c2.78-2.08,5.42-4.05,8-6a.87.87,0,0,0,.32-.56c0-1.12,0-2.23,0-3.34H9.59Z"/><path class="cls-2" d="M30.84,61.22H5.34V35.77H30.79v4.71l3-2.19,2.54,3.39c-1.64,1.23-3.22,2.44-4.83,3.6a1.52,1.52,0,0,0-.71,1.4c0,4.45,0,8.9,0,13.36ZM9.61,57H26.47V49.1l-8.41,6.3L12.61,50l2.9-3,2.67,3c2.75-2.06,5.35-4,7.94-6a1,1,0,0,0,.4-.62c0-1.11,0-2.23,0-3.36H9.61Z"/><path class="cls-2" d="M90.37,14.48v4.13h-51c0-.36,0-.68,0-1,0-1,0-2,0-3.12Z"/><path class="cls-2" d="M39.37,48.44v-4.1h51v4.1Z"/><path class="cls-2" d="M39.37,78.21V74.1h51v4.11Z"/><path class="cls-2" d="M73.32,52.8V57H39.38V52.8Z"/><path class="cls-2" d="M73.34,23v4.1h-34V23Z"/><path class="cls-2" d="M39.38,82.59H73.3v4.12H39.38Z"/></g></svg>