<svg id="Layer_1" data-name="Layer 1" xmlns="http://www.w3.org/2000/svg" viewBox="0 0 48 48"><defs><style>.cls-1{fill:none;}.cls-2{fill:#fff;}</style></defs><title>aa</title><g id="Artwork"><rect class="cls-1" width="48" height="48"/><path class="cls-2" d="M23,38.4H8.8A3.8,3.8,0,0,1,5,34.6V29.5A3.7,3.7,0,0,1,6,27a13.9,13.9,0,0,1,5.6-4.2,7.3,7.3,0,1,1,8.6,0,13.9,13.9,0,0,1,5.7,4.3,3.9,3.9,0,0,1,.9,2.4v5.1A3.8,3.8,0,0,1,23,38.4Zm-14-4H22.8V29.6h0A8.9,8.9,0,0,0,15.9,26,8.9,8.9,0,0,0,9,29.6Zm6.9-20.8a3.3,3.3,0,1,0,3.3,3.3A3.3,3.3,0,0,0,15.9,13.6ZM39.3,37.4H27.7l1.4-2.9a1.7,1.7,0,0,0,.1-.7V29a2.8,2.8,0,0,0-.6-1.8l-.5-.5-.4-.4-2.1-2.1L28.4,23l.8-.3a6.3,6.3,0,1,1,7.3,0,12.8,12.8,0,0,1,5.6,4.1A3.7,3.7,0,0,1,43,29v4.7A3.6,3.6,0,0,1,39.3,37.4Zm-6.1-4H39V29.2A7.9,7.9,0,0,0,32.5,26a6.7,6.7,0,0,1,.7,2.9Zm-.4-18.2a2.3,2.3,0,1,0,2.3,2.3A2.3,2.3,0,0,0,32.8,15.2Z"/></g></svg>