<svg id="Layer_1" data-name="Layer 1" xmlns="http://www.w3.org/2000/svg" viewBox="0 0 48 48"><defs><style>.cls-1{fill:#fff;}.cls-2{fill:none;}</style></defs><title>aa</title><g id="Artwork"><path class="cls-1" d="M24,17a7,7,0,1,0,7,7A7,7,0,0,0,24,17Zm0,10a3,3,0,1,1,3-3A2.9,2.9,0,0,1,24,27Zm17-.2-2.7-2.1V23.1L41,21a2.7,2.7,0,0,0,.7-3.4L38.4,12a2.7,2.7,0,0,0-3.2-1.2l-3.3,1.3-1.4-.8L30,8a2.8,2.8,0,0,0-2.7-2H20.6A2.7,2.7,0,0,0,18,8.2l-.5,3.3-1.4.8L12.8,11a2.6,2.6,0,0,0-3.2,1.1L6.3,17.7A2.9,2.9,0,0,0,7,21.2l2.7,2.1v1.6L7,26.8a2.7,2.7,0,0,0-.7,3.4l3.3,5.6A2.7,2.7,0,0,0,12.8,37l3.3-1.3,1.4.8.5,3.3a2.7,2.7,0,0,0,2.6,2.3h6.7a2.7,2.7,0,0,0,2.6-2.2l.5-3.3,1.4-.8,3.3,1.3A2.6,2.6,0,0,0,38.3,36l3.4-5.6A3,3,0,0,0,41,26.8Zm-6.4-4.2a7.6,7.6,0,0,1,.1,1.4,7.6,7.6,0,0,1-.1,1.4v1l3.6,2.8-2.5,4.1-4.3-1.7-.8.6a14.9,14.9,0,0,1-2.4,1.4l-1,.4-.7,4.5h-5L20.7,34l-1-.4a10,10,0,0,1-2.4-1.4l-.8-.6-4.3,1.7L9.7,29.2l3.6-2.8v-1a7.1,7.1,0,0,1-.1-1.4,7.6,7.6,0,0,1,.1-1.4v-1L9.7,18.8l2.5-4.1,4.3,1.7.8-.6a14.9,14.9,0,0,1,2.4-1.4l1-.4.7-4.5h5l.7,4.5,1,.4a10,10,0,0,1,2.4,1.4l.8.6,4.3-1.7,2.5,4.1-3.6,2.8Z"/><rect class="cls-2" width="48" height="48"/></g></svg>