<svg id="Layer_1" data-name="Layer 1" xmlns="http://www.w3.org/2000/svg" viewBox="0 0 48 48"><defs><style>.cls-1{fill:#fff;}.cls-2{fill:none;}</style></defs><title>aa</title><g id="Artwork"><path class="cls-1" d="M42,28a6.8,6.8,0,0,0-3-5.7V19A15,15,0,0,0,9,19v3.3A7.1,7.1,0,0,0,6,28a7,7,0,0,0,7,7h4a2,2,0,0,0,2-2V23a2,2,0,0,0-2-2H13V19a11,11,0,0,1,22,0v2H31a2,2,0,0,0-2,2V33a2,2,0,0,0,2,2h3.6A6,6,0,0,1,29,39H26.2A2.9,2.9,0,0,0,24,38a3,3,0,1,0,0,6,2.9,2.9,0,0,0,2.2-1H30a10.1,10.1,0,0,0,9-9.2A6.8,6.8,0,0,0,42,28ZM15,25v6H13a3,3,0,0,1,0-6Zm18,0h2a3,3,0,0,1,0,6H33Z"/><rect class="cls-2" width="48" height="48"/></g></svg>