<svg xmlns="http://www.w3.org/2000/svg" width="40" height="40" fill="none"><g clip-path="url(#a)"><circle cx="20" cy="20" r="20" fill="#4AB017"/><path fill="#fff" d="M28 12H12c-.55 0-1 .45-1 1v12c0 .55.45 1 1 1h3v3c0 .4.25.75.6.9.15.1.25.1.4.1.25 0 .5-.1.7-.3l3.7-3.7H28c.55 0 1-.45 1-1V13c0-.55-.45-1-1-1Zm-1 12h-7.3c-.05 0-.05 0-.1.05-.05 0-.05.05-.1.05s-.05.05-.1.05l-.15.15L17 26.6V25c0-.55-.45-1-1-1h-3V14h14v10Zm-12-7c0-.55.45-1 1-1h8c.55 0 1 .45 1 1s-.45 1-1 1h-8c-.55 0-1-.45-1-1Zm0 4c0-.55.45-1 1-1h8c.55 0 1 .45 1 1s-.45 1-1 1h-8c-.55 0-1-.45-1-1Z"/></g><defs><clipPath id="a"><path fill="#fff" d="M0 0h40v40H0z"/></clipPath></defs></svg>