<svg xmlns="http://www.w3.org/2000/svg" width="40" height="40" fill="none"><g clip-path="url(#a)"><circle cx="20" cy="20" r="20" fill="#026CCF"/><path fill="#fff" d="M27 12.5c-2.55 0-4-.3-6.35-2.25-.35-.3-.9-.3-1.3 0C17 12.2 15.55 12.5 13 12.5c-.55 0-1 .45-1 1V22c0 3.45 2.15 4.7 5.45 6.65.65.35 1.3.75 2.05 1.2.15.1.35.15.55.15.2 0 .35-.05.55-.15.75-.45 1.4-.85 2.05-1.2C25.85 26.7 28 25.45 28 22v-8.5c0-.55-.45-1-1-1ZM26 22c0 2.2-1.15 2.95-4.45 4.9-.5.3-1 .6-1.55.9V20h-6v-5.5c2.15-.1 3.85-.6 6-2.2V20h6v2Z"/></g><defs><clipPath id="a"><path fill="#fff" d="M0 0h40v40H0z"/></clipPath></defs></svg>