<svg xmlns="http://www.w3.org/2000/svg" width="40" height="40" fill="none"><g clip-path="url(#a)"><circle cx="20" cy="20" r="20" fill="#026CCF"/><path fill="#fff" fill-rule="evenodd" d="M18.937 8.01a5.758 5.758 0 0 0-1.267.245c-.53.171-.948.371-1.408.675a5.53 5.53 0 0 0-2.302 3.204c-.073.281-.124.57-.155.884a8.522 8.522 0 0 0 0 .956 5.492 5.492 0 0 0 1.374 3.17c.201.225.504.504.758.698.038.029.065.056.06.06a11.906 11.906 0 0 0-.84.424 8.411 8.411 0 0 0-2.534 2.218 8 8 0 0 0-1.584 4.073c-.036.37-.039.583-.039 2.979A2.404 2.404 0 0 0 13.404 30h4.112c.505 0 .914-.41.913-.916a.92.92 0 0 0-.919-.917l-1.867-.002h-1.18c-.885-.002-1.601-.72-1.6-1.606.005-1.685.004-1.663.058-2.044a6.343 6.343 0 0 1 2.535-4.25A6.573 6.573 0 0 1 19.48 19a6.402 6.402 0 0 1 2.759.685c.694.344.826.393 1.41.964l.262.228a.564.564 0 0 0 .738.003c.444-.381.73-.626.895-.77l.083-.071a.052.052 0 0 0 .006-.074 11.517 11.517 0 0 0-.221-.232c-.742-.766-1.572-1.368-2.406-1.742-.114-.05-.21-.095-.21-.095s.063-.055.141-.12c.079-.064.212-.185.297-.268a5.647 5.647 0 0 0 1.689-4.13 5.275 5.275 0 0 0-.21-1.382 5.58 5.58 0 0 0-.76-1.595 5.62 5.62 0 0 0-3.471-2.293 7.347 7.347 0 0 0-.626-.093 8.08 8.08 0 0 0-.92-.006Zm.043 1.839a3.724 3.724 0 0 0-1.647.578 3.67 3.67 0 0 0-1.675 2.742 4.83 4.83 0 0 0 0 .65c.091 1 .588 1.91 1.386 2.541.83.657 1.897.927 2.957.747a3.78 3.78 0 0 0 1.782-.841 3.677 3.677 0 0 0 1.253-2.275c.022-.146.025-.208.025-.495 0-.284-.004-.35-.025-.494a3.595 3.595 0 0 0-.586-1.523 3.685 3.685 0 0 0-1.054-1.04 3.634 3.634 0 0 0-1.425-.56c-.26-.045-.7-.059-.991-.03Zm7.896 11.441-2.691 2.658-.09-.047a2.882 2.882 0 0 0-.98-.29 5.426 5.426 0 0 0-.94 0c-.439.067-.83.203-1.193.415-.828.483-1.421 1.32-1.576 2.225a3.073 3.073 0 0 0 .266 1.898c.197.409.526.824.881 1.11a3.223 3.223 0 0 0 2.689.676 3.32 3.32 0 0 0 2.375-1.964c.153-.372.221-.69.232-1.082a2.863 2.863 0 0 0-.106-.893 6.575 6.575 0 0 0-.216-.654l-.043-.107.878-.868c.482-.477.882-.867.888-.867.006 0 .488.47 1.072 1.047l1.06 1.047.651-.64.651-.642-1.067-1.054-1.067-1.053.51-.503.508-.502 1.07 1.056 1.069 1.055.535-.532.647-.645.111-.113-1.716-1.694-1.716-1.695-2.692 2.658Zm-4.402 4.133a1.413 1.413 0 0 0-.838.403 1.426 1.426 0 0 0-.388.671 1.652 1.652 0 0 0-.006.564c.15.636.725 1.102 1.362 1.102.662 0 1.253-.499 1.377-1.162.019-.101.016-.342-.006-.445a1.445 1.445 0 0 0-.964-1.073 1.47 1.47 0 0 0-.537-.06Z" clip-rule="evenodd"/></g><defs><clipPath id="a"><path fill="#fff" d="M0 0h40v40H0z"/></clipPath></defs></svg>