<svg id="Layer_1" data-name="Layer 1" xmlns="http://www.w3.org/2000/svg" viewBox="0 0 48 48"><defs><style>.cls-1{fill:none;}.cls-2{fill:#eb7b18;}</style></defs><title>NotificationWarningIcon</title><path class="cls-1" d="M0,0H48V48H0Z"/><path class="cls-2" d="M25.7,8A2.06,2.06,0,0,0,24,7a1.94,1.94,0,0,0-1.7,1L4.3,38a1.82,1.82,0,0,0,0,2A2.06,2.06,0,0,0,6,41H42a1.94,1.94,0,0,0,1.7-1,2.33,2.33,0,0,0,0-2ZM9.5,37,24,12.9,38.5,37ZM26,33a2,2,0,1,1-2-2A2,2,0,0,1,26,33ZM24,21a2,2,0,0,1,2,2v4a2,2,0,0,1-4,0V23A2,2,0,0,1,24,21Z"/></svg>