<svg id="Layer_1" data-name="Layer 1" xmlns="http://www.w3.org/2000/svg" viewBox="0 0 60 60"><defs><style>.cls-1{fill:#fdd222;}.cls-2{fill:#fff;}.cls-3{fill:#ff9a60;}.cls-4{fill:#3d2e00;}</style></defs><title>GoodSelected</title><rect class="cls-1" x="2.97" y="2.97" width="54.07" height="54.07" rx="12" ry="12"/><path class="cls-2" d="M45,35.9S42.23,46.59,30.69,46.59,15.93,35.9,15.93,35.9Z"/><circle class="cls-3" cx="10.4" cy="34.12" r="4.12"/><circle class="cls-3" cx="50.46" cy="34.12" r="4.12"/><path class="cls-4" d="M43.36,18.09c4.56,0,5.76,4.53,5.76,6.92a1.5,1.5,0,0,1-3,0h0c0-.4-.1-3.93-2.76-3.93a2.1,2.1,0,0,0-1.59.6A5.3,5.3,0,0,0,40.69,25a1.51,1.51,0,0,1-1.49,1.51h0A1.49,1.49,0,0,1,37.69,25a8.2,8.2,0,0,1,1.94-5.45A5.1,5.1,0,0,1,43.36,18.09ZM46.12,25h0Z"/><path class="cls-4" d="M17.43,18.09c4.56,0,5.76,4.53,5.76,6.92a1.5,1.5,0,0,1-3,0h0c0-.4-.1-3.93-2.76-3.93a2.08,2.08,0,0,0-1.59.6A5.39,5.39,0,0,0,14.75,25a1.5,1.5,0,0,1-1.48,1.51h0A1.5,1.5,0,0,1,11.75,25a8.29,8.29,0,0,1,1.95-5.45A5.09,5.09,0,0,1,17.43,18.09ZM20.19,25h0Z"/></svg>