<svg id="Layer_1" data-name="Layer 1" xmlns="http://www.w3.org/2000/svg" viewBox="0 0 59 60"><defs><style>.cls-1{fill:#ff6805;}.cls-2{fill:#3d2e00;}.cls-3{fill:#2ca4bd;}</style></defs><title>BadSelected</title><rect class="cls-1" x="2.97" y="2.97" width="54.07" height="54.07" rx="12" ry="12"/><path class="cls-2" d="M40.31,42.56a1.49,1.49,0,0,1-1.43-1.06h0a9.77,9.77,0,0,0-9.26-6.68,9.09,9.09,0,0,0-8.87,6.62,1.5,1.5,0,0,1-2.9-.75,12,12,0,0,1,11.77-8.87,12.73,12.73,0,0,1,12.13,8.81,1.5,1.5,0,0,1-1,1.87A1.67,1.67,0,0,1,40.31,42.56Z"/><path class="cls-2" d="M16.88,29.66c-4.55,0-5.76-4.53-5.76-6.93a1.5,1.5,0,0,1,3,0h0c0,.4.11,3.93,2.76,3.93a2.1,2.1,0,0,0,1.6-.6,5.3,5.3,0,0,0,1.08-3.31,1.5,1.5,0,0,1,1.49-1.51h0a1.49,1.49,0,0,1,1.5,1.47,8.22,8.22,0,0,1-1.94,5.45A5.13,5.13,0,0,1,16.88,29.66Zm-2.76-6.93h0Z"/><path class="cls-2" d="M42.82,29.66c-4.56,0-5.76-4.53-5.76-6.93a1.5,1.5,0,0,1,3,0h0c0,.4.1,3.93,2.76,3.93a2.1,2.1,0,0,0,1.59-.6,5.3,5.3,0,0,0,1.08-3.31A1.5,1.5,0,0,1,47,21.24h0a1.49,1.49,0,0,1,1.5,1.47,8.22,8.22,0,0,1-1.94,5.45A5.1,5.1,0,0,1,42.82,29.66Zm-2.76-6.93h0Z"/><path class="cls-3" d="M47,32.66s7.29,12.78,0,12.78S47,32.66,47,32.66Z"/></svg>