<svg data-name="Layer 1" xmlns="http://www.w3.org/2000/svg" viewBox="0 0 48 48"><path d="M20.44 32.89a13 13 0 007.47-2.49L37 39.47a1.76 1.76 0 001.24.53 1.79 1.79 0 001.25-.53 1.72 1.72 0 000-2.49l-9.09-9.07a13 13 0 002.49-7.47 12.45 12.45 0 10-12.45 12.45zm0-21.33a8.89 8.89 0 11-8.88 8.88 8.91 8.91 0 018.88-8.88z" fill-rule="evenodd" fill="#fff"/><g data-name="тнХ-Action-/-Search"><path data-name="path-1" d="M20.44 32.89a13 13 0 007.47-2.49L37 39.47a1.76 1.76 0 001.24.53 1.79 1.79 0 001.25-.53 1.72 1.72 0 000-2.49l-9.09-9.07a13 13 0 002.49-7.47 12.45 12.45 0 10-12.45 12.45zm0-21.33a8.89 8.89 0 11-8.88 8.88 8.91 8.91 0 018.88-8.88z" fill="#7d7d7d" fill-rule="evenodd"/></g></svg>