<svg width="24" height="24" viewBox="0 0 24 24" fill="none" xmlns="http://www.w3.org/2000/svg">
<g clip-path="url(#clip0_1032_1915)">
<path d="M12 21.9999C11.8 21.9999 11.65 21.9499 11.45 21.8499C10.7 21.3999 10.05 20.9999 9.4 20.6499C6.15 18.6999 4 17.4499 4 13.9999V5.4999C4 4.9499 4.45 4.4999 5 4.4999C7.55 4.4999 9 4.1999 11.35 2.2499C11.7 1.9499 12.25 1.9499 12.65 2.2499C15 4.1999 16.45 4.4999 19 4.4999C19.55 4.4999 20 4.9499 20 5.4999V13.9999C20 17.4499 17.85 18.6999 14.55 20.6499C13.9 20.9999 13.25 21.3999 12.5 21.8499C12.35 21.9499 12.2 21.9999 12 21.9999ZM6 6.4999V13.9999C6 16.1999 7.15 16.9499 10.45 18.8999C10.95 19.1999 11.45 19.4999 12 19.7999C12.55 19.4499 13.05 19.1499 13.55 18.8999C16.85 16.9499 18 16.1999 18 13.9999V6.4999C15.85 6.3999 14.15 5.8999 12 4.2999C9.85 5.8999 8.15 6.3999 6 6.4999Z" fill="#333333"/>
</g>
<defs>
<clipPath id="clip0_1032_1915">
<rect width="24" height="24" fill="white"/>
</clipPath>
</defs>
</svg>
