<svg width="24" height="24" viewBox="0 0 24 24" fill="none" xmlns="http://www.w3.org/2000/svg">
<g clip-path="url(#clip0_1032_1911)">
<path d="M9.95 8C9.95 6.9 10.85 6 11.95 6C13.05 6 13.95 6.9 13.95 8C13.95 9.1 13.05 10 11.95 10C10.85 10 9.95 9.1 9.95 8ZM8.95 16H14.95C15.5 16 15.95 15.55 15.95 15V13.25C15.95 13 15.85 12.7 15.65 12.55C14.6 11.55 13.3 11 11.95 11C10.6 11 9.3 11.55 8.25 12.55C8.05 12.75 7.95 13 7.95 13.25V15C7.95 15.55 8.4 16 8.95 16ZM22 4V18C22 18.55 21.55 19 21 19H20.95H13V20H14.5C15.05 20 15.5 20.45 15.5 21C15.5 21.55 15.05 22 14.5 22H9.5C8.95 22 8.5 21.55 8.5 21C8.5 20.45 8.95 20 9.5 20H11V19H3C2.45 19 2 18.55 2 18V4C2 3.45 2.45 3 3 3H21C21.55 3 22 3.45 22 4ZM20 5H4V17H20V5Z" fill="#333333"/>
</g>
<defs>
<clipPath id="clip0_1032_1911">
<rect width="24" height="24" fill="white"/>
</clipPath>
</defs>
</svg>
