<svg xmlns="http://www.w3.org/2000/svg" width="48" height="48" fill="none"><g clip-path="url(#a)"><path fill="#333" d="M38 9c-5.1 0-8-.6-12.7-4.5-.7-.6-1.8-.6-2.6 0C18 8.4 15.1 9 10 9c-1.1 0-2 .9-2 2v17c0 6.9 4.3 9.4 10.9 13.3 1.3.7 2.6 1.5 4.1 2.4.3.2.7.3 1.1.3.4 0 .7-.1 1.1-.3 1.5-.9 2.8-1.7 4.1-2.4C35.7 37.4 40 34.9 40 28V11c0-1.1-.9-2-2-2Zm-2 19c0 4.4-2.3 5.9-8.9 9.8-1 .6-2 1.2-3.1 1.8V24H12V13c4.3-.2 7.7-1.2 12-4.4V24h12v4Z"/></g><defs><clipPath id="a"><path fill="#fff" d="M0 0h48v48H0z"/></clipPath></defs></svg>