<svg id="Layer_1" data-name="Layer 1" xmlns="http://www.w3.org/2000/svg" viewBox="0 0 48 48"><defs><style>.cls-1{fill:none;}.cls-2{fill:#333;}</style></defs><title>aa</title><g id="Artwork"><rect class="cls-1" width="48" height="48"/><path class="cls-2" d="M20.6,26.4a1.4,1.4,0,0,1,0,2.1l-5,5a1.5,1.5,0,0,1-1.1.4,1.5,1.5,0,0,1-1.1-.4,1.4,1.4,0,0,1,0-2.1l3.9-3.9-3.9-3.9a1.5,1.5,0,1,1,2.1-2.1ZM33.5,31h-7a1.5,1.5,0,0,0,0,3h7a1.5,1.5,0,0,0,0-3ZM42,8V40a2,2,0,0,1-2,2H8a2,2,0,0,1-2-2V8A2,2,0,0,1,8,6H40A2,2,0,0,1,42,8ZM10,10v4H38V10ZM38,38V18H10V38Z"/></g></svg>