<svg id="Layer_1" data-name="Layer 1" xmlns="http://www.w3.org/2000/svg" viewBox="0 0 48 48"><defs><style>.cls-1{fill:#333;}.cls-2{fill:none;}</style></defs><title>aa</title><g id="Artwork"><path class="cls-1" d="M40,8H8a2,2,0,0,0-2,2V34a2,2,0,0,0,2,2h6v6a2,2,0,0,0,1.2,1.8,1.2,1.2,0,0,0,.8.2,2,2,0,0,0,1.4-.6L24.8,36H40a2,2,0,0,0,2-2V10A2,2,0,0,0,40,8ZM38,32H22.8l-.3.3L18,37.2V34a2,2,0,0,0-2-2H10V12H38ZM14,18a2,2,0,0,1,2-2H32a2,2,0,0,1,0,4H16A2,2,0,0,1,14,18Zm0,8a2,2,0,0,1,2-2H32a2,2,0,0,1,0,4H16A2,2,0,0,1,14,26Z"/><rect class="cls-2" width="48" height="48"/></g></svg>