<svg id="Layer_1" data-name="Layer 1" xmlns="http://www.w3.org/2000/svg" viewBox="0 0 48 48"><defs><style>.cls-1{fill:#333;}.cls-2{fill:none;}</style></defs><title>aa</title><g id="Artwork"><path class="cls-1" d="M39.4,11.6l-7-7a1.4,1.4,0,0,0-1-.5H10A1.9,1.9,0,0,0,8,6V42a2.1,2.1,0,0,0,2,2H38a2,2,0,0,0,2-2V13h0A2,2,0,0,0,39.4,11.6ZM12,40V8H28v6a2,2,0,0,0,2,2h6V40ZM32,24a2,2,0,0,1-2,2H18a2,2,0,0,1,0-4H30A2,2,0,0,1,32,24Zm0,8a2,2,0,0,1-2,2H18a2,2,0,0,1,0-4H30A2,2,0,0,1,32,32Z"/><rect class="cls-2" width="48" height="48"/></g></svg>