<svg id="Layer_1" data-name="Layer 1" xmlns="http://www.w3.org/2000/svg" viewBox="0 0 48 48"><defs><style>.cls-1{fill:none;}.cls-2{fill:#333;}</style></defs><title>aa</title><g id="Layer_1-2" data-name="Layer 1"><path class="cls-1" d="M0,0H48V48H0Z"/><path class="cls-2" d="M19.9,16a4,4,0,1,1,4,4A4,4,0,0,1,19.9,16Zm-2,16h12a2,2,0,0,0,2-2V26.5a1.8,1.8,0,0,0-.6-1.4A10.7,10.7,0,0,0,23.9,22a10.7,10.7,0,0,0-7.4,3.1,2,2,0,0,0-.6,1.4V30A2,2,0,0,0,17.9,32ZM44,8V36a2,2,0,0,1-2,2H26v2h3a2,2,0,0,1,0,4H19a2,2,0,0,1,0-4h3V38H6a2,2,0,0,1-2-2V8A2,2,0,0,1,6,6H42A2,2,0,0,1,44,8Zm-4,2H8V34H40Z"/></g></svg>