<svg width="24" height="24" fill="none" xmlns="http://www.w3.org/2000/svg"><g clip-path="url(#a)"><mask id="b" style="mask-type:alpha" maskUnits="userSpaceOnUse" x="1" y="5" width="21" height="14"><path d="M21.95 11.6C20.35 7.6 16.45 5 12 5c-4.45 0-8.35 2.6-9.95 6.65-.1.25-.1.5 0 .75 1.6 4 5.5 6.6 9.95 6.6 4.45 0 8.35-2.6 9.95-6.65.05-.25.05-.5 0-.75ZM12 17a8.52 8.52 0 0 1-7.9-5C5.45 8.95 8.5 7 12 7s6.55 1.95 7.9 5a8.52 8.52 0 0 1-7.9 5Zm3-5a3 3 0 0 1-3 3 3 3 0 0 1-3-3 3 3 0 0 1 3-3 3 3 0 0 1 3 3Z" fill="#fff"/></mask><g mask="url(#b)"><path d="M21.95 11.6C20.35 7.6 16.45 5 12 5c-4.45 0-8.35 2.6-9.95 6.65-.1.25-.1.5 0 .75 1.6 4 5.5 6.6 9.95 6.6 4.45 0 8.35-2.6 9.95-6.65.05-.25.05-.5 0-.75ZM12 17a8.52 8.52 0 0 1-7.9-5C5.45 8.95 8.5 7 12 7s6.55 1.95 7.9 5a8.52 8.52 0 0 1-7.9 5Zm3-5a3 3 0 0 1-3 3 3 3 0 0 1-3-3 3 3 0 0 1 3-3 3 3 0 0 1 3 3Z" fill="#7D7D7D"/></g></g><defs><clipPath id="a"><path fill="#fff" d="M0 0h24v24H0z"/></clipPath></defs></svg>