<svg id="70303a7f-0634-4312-91d3-18f9893e396e" data-name="Layer 1" xmlns="http://www.w3.org/2000/svg" viewBox="0 0 48 48"><defs><style>.c188517b-1bf9-4140-a7b3-cd4c0d6ddf12{fill:none;}.d49659bd-2837-4a6e-b7bc-5b55ac72acce{fill:#7d7d7d;}</style></defs><title>Icons host page 1.4</title><g id="6be32feb-20d5-4efb-be1d-b4a7ac57404d" data-name="Layer 1"><path class="c188517b-1bf9-4140-a7b3-cd4c0d6ddf12" d="M0,0H48V48H0Z"/><path class="d49659bd-2837-4a6e-b7bc-5b55ac72acce" d="M35.4,17.4A2,2,0,0,0,36,16V6a2,2,0,0,0-2-2H14a2,2,0,0,0-2,2V16a2,2,0,0,0,.6,1.4L19.2,24l-6.6,6.6A2,2,0,0,0,12,32V42a2,2,0,0,0,2,2H34a2,2,0,0,0,2-2V32a2,2,0,0,0-.6-1.4L28.8,24ZM32,8v7H16V8Zm0,24.8V40H16V32.8l6-6,2-2,2,2Z"/></g></svg>