<svg id="Layer_1" data-name="Layer 1" xmlns="http://www.w3.org/2000/svg" viewBox="0 0 500 400"><defs><style>.cls-1{fill:#6b6b6b;}.cls-2{fill:#f5f5f5;}.cls-3{fill:#fff;}.cls-4{fill:#3f3f3f;}.cls-5{fill:#cc3232;}.cls-6{font-size:18.53px;fill:#f17f26;font-family:Roboto-Bold, Roboto;font-weight:700;letter-spacing:0.09em;}.cls-7{letter-spacing:0.08em;}.cls-8{fill:#62b5e7;}.cls-11,.cls-8{stroke:#62b5e7;}.cls-11,.cls-8,.cls-9{stroke-miterlimit:10;}.cls-11,.cls-9{fill:none;}.cls-9{stroke:#f17f26;stroke-width:2px;stroke-dasharray:6.02 6.02;}.cls-10{fill:#f7c451;}.cls-11{stroke-width:20px;}</style></defs><title>Wake-On-Lan</title><path class="cls-1" d="M327.88,134H173.52V38.68a6,6,0,0,1,5.95-6H321.93a6,6,0,0,1,5.95,6Zm-151.76-2.6H325.28V38.68a3.36,3.36,0,0,0-3.35-3.36H179.47a3.36,3.36,0,0,0-3.35,3.36Z"/><rect class="cls-2" x="181.21" y="39.22" width="138.88" height="88.26"/><path class="cls-1" d="M321.39,128.78H179.91V37.92H321.39Zm-138.88-2.6H318.79V40.52H182.51Z"/><path class="cls-1" d="M344.75,141.76H155.25a9.1,9.1,0,0,1-9.09-9.09v-1.3H353.84v1.3A9.1,9.1,0,0,1,344.75,141.76ZM148.89,134a6.5,6.5,0,0,0,6.36,5.19h189.5a6.5,6.5,0,0,0,6.36-5.19Z"/><polygon class="cls-3" points="241.52 69.7 252.03 93.9 256.37 84.06 263.21 92.23 265.05 89.73 258.04 82.55 266.55 79.55 241.52 69.7"/><path class="cls-1" d="M252,96.29,239.72,68,269.29,79.6,259.77,83l6.53,6.68-3,4.15-6.63-7.94Zm-8.71-24.85L252,91.51l4.08-9.25,7,8.42.64-.86-7.49-7.67,7.5-2.65Z"/><rect class="cls-1" x="238.73" y="78.88" width="1.91" height="5.34"/><rect class="cls-1" x="227.38" y="75.76" width="6.75" height="1.91" transform="translate(4.69 166.3) rotate(-40.01)"/><rect class="cls-1" x="228.59" y="62.65" width="1.91" height="6.1" transform="translate(29.23 195.63) rotate(-48.94)"/><rect class="cls-1" x="238.73" y="57.52" width="1.91" height="6.68"/><rect class="cls-1" x="245.16" y="63.91" width="6.41" height="1.92" transform="translate(13.9 169.36) rotate(-38.66)"/><path class="cls-1" d="M430.38,310.9H321.45V243.65a4.21,4.21,0,0,1,4.2-4.2H426.18a4.21,4.21,0,0,1,4.2,4.2Zm-107.1-1.83H428.55V243.65a2.37,2.37,0,0,0-2.37-2.36H325.65a2.37,2.37,0,0,0-2.37,2.36Z"/><rect class="cls-4" x="326.88" y="244.03" width="98.01" height="62.29"/><path class="cls-1" d="M425.8,307.24H326V243.12H425.8Zm-98-1.83H424V245H327.79Z"/><path class="cls-1" d="M442.29,316.4H308.56a6.42,6.42,0,0,1-6.41-6.41v-.92H448.7V310A6.42,6.42,0,0,1,442.29,316.4Zm-138.22-5.5a4.59,4.59,0,0,0,4.49,3.67H442.29a4.6,4.6,0,0,0,4.49-3.67Z"/><path class="cls-1" d="M188.38,310.9H79.45V243.65a4.21,4.21,0,0,1,4.2-4.2H184.18a4.21,4.21,0,0,1,4.2,4.2Zm-107.1-1.83H186.55V243.65a2.37,2.37,0,0,0-2.37-2.36H83.65a2.37,2.37,0,0,0-2.37,2.36Z"/><rect class="cls-2" x="84.88" y="244.03" width="98.01" height="62.29"/><path class="cls-1" d="M183.8,307.24H84V243.12H183.8Zm-98-1.83H182V245H85.79Z"/><path class="cls-1" d="M200.29,316.4H66.56A6.43,6.43,0,0,1,60.14,310v-.92H206.7V310A6.42,6.42,0,0,1,200.29,316.4ZM62.07,310.9a4.58,4.58,0,0,0,4.49,3.67H200.29a4.6,4.6,0,0,0,4.49-3.67Z"/><path class="cls-5" d="M122.69,267.56v13.5h17.82v-13.5ZM137.42,278H125.78v-7.41h11.64Z"/><polyline class="cls-5" points="144.82 263.24 143.31 263.24 128.78 263.24 128.78 266.34 141.73 266.34 141.73 276.75 144.82 276.75"/><text class="cls-6" transform="translate(238.05 221.1)">L<tspan class="cls-7" x="11.78" y="0">AN</tspan></text><path d="M425.29,246.35c4.12-4.22,4.29-9.18,1.65-14.31a12.1,12.1,0,0,0,3.17-17.69,11.65,11.65,0,0,0-9-4.59,12,12,0,0,0-9.25,3.77c-3.58-7.9-10.74-9.23-15.57-8-6.07,1.58-9.72,6.82-9.65,14.13a13,13,0,0,0-11.13,4.86,12.82,12.82,0,0,0-2.87,7.87c-.22,5.47,3.63,12.31,12.09,13.32-.24,4.32-4.41,9.81-11.22,14.66a22,22,0,0,0,9.84-3.13,23.11,23.11,0,0,0,7.35-7.09c2.58,4.06,6.17,6.15,10.87,5.72s7.82-3.11,9.57-7.45C416.38,250.87,421.26,250.49,425.29,246.35Z"/><path class="cls-8" d="M401.61,255.89c-4.7.43-8.29-1.66-10.87-5.72a23.11,23.11,0,0,1-7.35,7.09,22,22,0,0,1-9.84,3.13c6.81-4.85,11-10.34,11.22-14.66-8.46-1-12.31-7.85-12.09-13.32a12.82,12.82,0,0,1,2.87-7.87,13,13,0,0,1,11.13-4.86c-.07-7.31,3.58-12.55,9.65-14.13,4.83-1.25,12,.08,15.57,8a12,12,0,0,1,9.25-3.77,11.65,11.65,0,0,1,9,4.59A12.1,12.1,0,0,1,426.94,232c2.64,5.13,2.47,10.09-1.65,14.31s-8.91,4.52-14.11,2.09C409.43,252.78,406.28,255.46,401.61,255.89Z"/><path class="cls-3" d="M414,231.56c-.63-1.86-.63-1.86,1.06-2.14l5.77-.95a8.5,8.5,0,0,1-.33,2c-.94,2.17-2,4.3-3.07,6.67l4.59-.75.3,1.82-7.75,1.28a8.11,8.11,0,0,1,.31-1.84c1-2.23,2.08-4.42,3.22-6.81Z"/><path class="cls-3" d="M405.61,228.19l-4.16.69-.29-1.74,7.19-1.18a8.63,8.63,0,0,1-.32,2c-.81,1.87-1.72,3.7-2.59,5.55-.15.32-.27.65-.49,1.17l4.61-.76.29,1.77L402.08,237a8.11,8.11,0,0,1,.33-1.83c.86-1.93,1.8-3.82,2.71-5.73C405.27,229.07,405.39,228.74,405.61,228.19Z"/><path class="cls-3" d="M396,223.3a10.81,10.81,0,0,1-.45,2.12c-1,2.16-2,4.28-3.1,6.66l3.21-.53c1.64-.27,1.7-.22,1.63,1.56l-7.67,1.26a8.27,8.27,0,0,1,.37-1.93c1-2.22,2.08-4.4,3.22-6.79l-4.17.69-.31-1.84Z"/><rect class="cls-9" x="31.94" y="174.6" width="436.11" height="192.67" rx="10.42"/><rect class="cls-1" x="270.08" y="136.95" width="1.91" height="23.84"/><polygon class="cls-1" points="271.04 167.54 267.15 158.03 271.04 160.29 274.92 158.03 271.04 167.54"/><path class="cls-1" d="M249.05,192.4a5.74,5.74,0,1,1,5.73,5.73A5.74,5.74,0,0,1,249.05,192.4Zm9.56,0a3.83,3.83,0,1,0-3.83,3.82A3.84,3.84,0,0,0,258.61,192.4Z"/><rect class="cls-1" x="231.84" y="131.22" width="1.91" height="21.03"/><rect class="cls-1" x="225.63" y="98.71" width="1.91" height="11.47"/><rect class="cls-1" x="221.8" y="103.49" width="9.56" height="1.91"/><rect class="cls-1" x="237.1" y="190.49" width="1.91" height="11.47"/><rect class="cls-1" x="233.27" y="195.27" width="9.56" height="1.91"/><rect class="cls-1" x="252.87" y="169.45" width="1.91" height="19.12"/><rect class="cls-1" x="252.87" y="156.07" width="1.91" height="7.65"/><rect class="cls-1" x="249.05" y="154.16" width="1.91" height="19.12"/><rect class="cls-1" x="249.05" y="144.6" width="1.91" height="5.74"/><rect class="cls-1" x="256.7" y="117.83" width="1.91" height="26.77"/><path class="cls-1" d="M268.17,115.92V114h1.91v1.91Zm0-3.82v-1.91h1.91v1.91Zm0-3.83v-1.91h1.91v1.91Zm0-3.82v-1.91h1.91v1.91Zm0-3.82V98.71h1.91v1.92Zm0-3.83V94.89h1.91V96.8Zm0-3.82V91.07h1.91V93Zm0-3.83V87.24h1.91v1.91Zm0-3.82V83.42h1.91v1.91Zm0-3.82V79.59h1.91v1.92Zm0-3.83V75.77h1.91v1.91Zm0-3.82V72h1.91v1.91Zm0-3.82V68.12h1.91V70Z"/><path class="cls-1" d="M239.49,149.38v-1.91h1.91v1.91Zm0-3.82v-1.92h1.91v1.92Zm0-3.83v-1.91h1.91v1.91Zm0-3.82V136h1.91v1.91Zm0-3.83v-1.91h1.91v1.91Zm0-3.82v-1.91h1.91v1.91Zm0-3.82v-1.92h1.91v1.92Zm0-3.83V120.7h1.91v1.91Zm0-3.82v-1.91h1.91v1.91Zm0-3.82v-1.92h1.91V115Zm0-3.83v-1.91h1.91v1.91Zm0-3.82v-1.91h1.91v1.91Zm0-3.83v-1.91h1.91v1.91Z"/><path class="cls-10" d="M233.62,312.52c-1.9-.14-3.74-.28-5.58-.4-.9-.06-.9,0-1-.91q-1.19-8.22-2.39-16.42a.62.62,0,0,1,.47-.81l47.8-18.68c.17-.07.34-.12.61-.21,2,13.59,3.91,27.12,5.87,40.74-.72,0-1.37-.05-2-.1l-18.6-1.38c-2.4-.18-4.8-.34-7.19-.54-.54,0-.77.09-.93.65a7.15,7.15,0,0,1-6.89,5.36,1,1,0,0,0-1.09.8c-.44,1.48-.88,3-1.25,4.48-.18.76-.23,1.56-.35,2.33a1.45,1.45,0,0,1-1.65,1.39l-4.48-.14a1.47,1.47,0,0,1-1.57-1.66l.3-13.92C233.65,312.94,233.63,312.77,233.62,312.52Zm-3.25-16.78c-.1,1.48,1,3,2.86,2.33,8.32-3.06,16.66-6.07,25-9.1l9.63-3.51a1.75,1.75,0,0,0,1.36-1.85c-.19-1.83-1.44-2.48-2.88-1.95q-11.92,4.36-23.88,8.69-5.34,1.95-10.69,3.88A1.88,1.88,0,0,0,230.37,295.74Zm13,20.89c2,0,4-1.37,4.34-2.94l-4.22-.47Z"/><path class="cls-10" d="M285.26,318.81a3.23,3.23,0,0,1-2.85-2.85l-2.25-15.48c-1.24-8.55-2.44-17.09-3.75-25.62a3.44,3.44,0,0,1,4-4,3.22,3.22,0,0,1,2.66,2.89c.44,2.91.85,5.82,1.28,8.73,1.56,10.71,3.09,21.43,4.7,32.13A3.42,3.42,0,0,1,285.26,318.81Z"/><path class="cls-10" d="M223.85,311.94a1.66,1.66,0,0,1-1.61,1.57,1.62,1.62,0,0,1-1.72-1.46c-.27-1.76-.52-3.52-.78-5.28Q219,301.4,218.17,296a1.75,1.75,0,0,1,.66-1.87,1.63,1.63,0,0,1,1.76-.14,1.52,1.52,0,0,1,.87,1.2q1.17,8.12,2.35,16.23C223.84,311.64,223.84,311.85,223.85,311.94Z"/><path class="cls-3" d="M249.24,338v-.82a2.47,2.47,0,0,0-2.47-2.47h1.4a2.48,2.48,0,0,0,2.47-2.47v-.83a2.48,2.48,0,0,0-2.47-2.47,2.47,2.47,0,0,0,2.47-2.47v-.82a2.48,2.48,0,0,0-2.47-2.47h1.35a2.47,2.47,0,0,0,2.47-2.47v-.82a2.47,2.47,0,0,0-2.47-2.47H246a2.36,2.36,0,0,0,.56-1.51,2.3,2.3,0,0,0-.68-1.64l-.28-.29a2.36,2.36,0,0,0-1.65-.68h-9.49a2.32,2.32,0,0,0-1.77.82l-3.53,4.12-4.71,5.5a2.35,2.35,0,0,1-2.34.74l-1.07-.27v11.17a2.32,2.32,0,0,0,2,2.3l1.38.21a2.31,2.31,0,0,1,1.3.65l.42.42a2.33,2.33,0,0,0,1.65.69l19,.82A2.48,2.48,0,0,0,249.24,338Z"/><path class="cls-1" d="M220.09,335.34V323l2.21.55a1.4,1.4,0,0,0,1.41-.45l8.25-9.62a3.22,3.22,0,0,1,2.46-1.13h9.49a3.17,3.17,0,0,1,2.29.95l.29.28a3.27,3.27,0,0,1,.89,2.88h2.14a3.39,3.39,0,0,1,3.38,3.39v.82a3.39,3.39,0,0,1-3.38,3.39l1.44-.52a5.82,5.82,0,0,1,.59,2.07v.82a3.35,3.35,0,0,1-1.07,2.47,3.38,3.38,0,0,1,1.07,2.47v.83a3.38,3.38,0,0,1-2,3.07,3.32,3.32,0,0,1,.56,1.87V338a3.39,3.39,0,0,1-3.38,3.39l-19.08-.83a3.23,3.23,0,0,1-2.26-.95l-.42-.42a1.46,1.46,0,0,0-.79-.4l-1.37-.2A3.24,3.24,0,0,1,220.09,335.34Zm1.83-10v10a1.39,1.39,0,0,0,1.2,1.39l1.38.21a3.33,3.33,0,0,1,1.81.91l.42.43a1.43,1.43,0,0,0,1,.41l19.08.82a1.54,1.54,0,0,0,1.51-1.55v-.82a1.55,1.55,0,0,0-1.55-1.56v-1.83h1.4a1.56,1.56,0,0,0,1.55-1.55v-.83a1.56,1.56,0,0,0-1.55-1.55V328a1.56,1.56,0,0,0,1.55-1.56v-.82a1.55,1.55,0,0,0-1.55-1.55v-1.83h1.35a1.56,1.56,0,0,0,1.55-1.56v-.82a1.55,1.55,0,0,0-1.55-1.55H244l1.29-1.51a1.59,1.59,0,0,0-.07-1.92l-.28-.28a1.43,1.43,0,0,0-1-.41h-9.49a1.42,1.42,0,0,0-1.07.49l-8.25,9.62A3.22,3.22,0,0,1,221.92,325.34Z"/><path class="cls-11" d="M133.69,297.86v19.6a14.11,14.11,0,0,0,14.11,14.11h75.08"/></svg>