<svg id="Layer_1" data-name="Layer 1" xmlns="http://www.w3.org/2000/svg" viewBox="0 0 427.48 223.57"><defs><style>.cls-1,.cls-10,.cls-12,.cls-13,.cls-14,.cls-15,.cls-16,.cls-17,.cls-18,.cls-19,.cls-20,.cls-21,.cls-22,.cls-4{fill:none;}.cls-1,.cls-12,.cls-13,.cls-14,.cls-15,.cls-16,.cls-17,.cls-18,.cls-19,.cls-2,.cls-20,.cls-21,.cls-22,.cls-3,.cls-4,.cls-5,.cls-6{stroke:#6b6b6b;}.cls-1,.cls-2,.cls-3,.cls-4,.cls-5,.cls-6{stroke-miterlimit:10;}.cls-1,.cls-2,.cls-3,.cls-5,.cls-6{stroke-width:3px;}.cls-2{fill:#23b8d2;}.cls-3{fill:#fffffb;}.cls-12,.cls-13,.cls-14,.cls-15,.cls-16,.cls-17,.cls-18,.cls-19,.cls-20,.cls-21,.cls-22,.cls-4{stroke-width:4px;}.cls-5{fill:#ff9912;}.cls-6{fill:#CC3232;}.cls-7{opacity:0.2;}.cls-8{fill:#6b6b6b;}.cls-9{fill:#b7b7b7;}.cls-11{fill:#4c4;}.cls-12,.cls-13,.cls-14,.cls-15,.cls-16,.cls-17,.cls-18,.cls-19,.cls-20,.cls-21,.cls-22{stroke-linejoin:bevel;}.cls-13{stroke-dasharray:3.16 3.16;}.cls-14{stroke-dasharray:2.99 2.99;}.cls-15{stroke-dasharray:2.79 2.79;}.cls-16{stroke-dasharray:2.97 2.97;}.cls-17{stroke-dasharray:2.83 2.83;}.cls-18{stroke-dasharray:3.34 3.34;}.cls-19{stroke-dasharray:3.07 3.07;}.cls-20{stroke-dasharray:2.85 2.85;}.cls-21{stroke-dasharray:3.01 3.01;}.cls-22{stroke-dasharray:1.71 1.71;}</style></defs><title>Artboard 10</title><path class="cls-1" d="M75,97.3C76.31,100,79,94.6,79,94.6V88H75Z"/><path class="cls-1" d="M75.4,90.67,75,101.49s-1.35,6.76-9.46,6.76H57.37s-8.12-1.35-8.12-6.76c0,0-10.82-5.41-4-10.82h4V79.85H75Z"/><polyline class="cls-1" points="73.32 87.96 72.73 94.73 65.97 94.73 63.26 87.96 61.91 87.96 60.56 94.73 52.44 94.73 49.74 87.96 61.49 87.96 63.93 87.96 78.14 87.96"/><path class="cls-2" d="M45.68,90.67,43,73.08,51.09,65,82.2,63.62s0,17.58-6.77,16.23H49.74V90.67Z"/><path class="cls-3" d="M59.2,101.49a5.14,5.14,0,0,0,4.06,1.35A4.9,4.9,0,0,0,66,101.49"/><circle class="cls-4" cx="61.23" cy="85.93" r="35.84"/><path class="cls-1" d="M348.65,175.75c-1.35,2.71-4-2.7-4-2.7v-6.64h4Z"/><ellipse class="cls-1" cx="364.88" cy="169.12" rx="16.23" ry="20.29"/><path class="cls-1" d="M354.06,169.12s2.71-6.77,6.77,0"/><path class="cls-1" d="M368.94,169.12s2.71-6.77,6.76,0"/><line class="cls-1" x1="360.83" y1="179.94" x2="367.59" y2="179.94"/><path class="cls-5" d="M365.6,152.94s-4,12.47-21.62,12.47c0,0-.77-33.48,26-21.55,0,0,16.08-3.85,16.08,18.47l-1.92,10.78s-11.36-1-10.6-17.88c0,0-.64,1.14-4.59,8C369,163.24,361.77,170.64,365.6,152.94Z"/><circle class="cls-4" cx="365.56" cy="164.38" r="35.84"/><path class="cls-1" d="M352.71,85.13c-1.35,2.71-4.06-2.7-4.06-2.7V75.79h4.06Z"/><path class="cls-6" d="M348.65,75.79h4.06V65h25.7V75.79h4.06V60.91s1.35-10.82-5.41-9.47c0,0-2.71-8.11-9.47-2.7,0,0-8.12-4.06-10.82,2.7,0,0-8.12-2.7-8.12,9.47V75.79Z"/><path class="cls-1" d="M352.26,75.79l.45,10.82s1.35,6.76,9.47,6.76h8.11s8.12-1.35,8.12-6.76c0,0,10.82-5.41,4.06-10.82h-4.06V65h-25.7Z"/><line class="cls-1" x1="359.47" y1="74.44" x2="359.47" y2="77.14"/><line class="cls-1" x1="370.29" y1="74.44" x2="370.29" y2="77.14"/><path class="cls-1" d="M363.53,71.73V81.2s1.35,2.71,4.06,0"/><path class="cls-1" d="M362.18,86.61s4.06,4.06,6.76,0"/><circle class="cls-4" cx="365.56" cy="71.06" r="35.84"/><rect class="cls-7" x="158.6" y="82.4" width="115.43" height="25.85"/><path class="cls-8" d="M275.26,161.27H156.31a10.55,10.55,0,0,1-10.54-10.54V137.22H287.08v12.23A11.83,11.83,0,0,1,275.26,161.27Zm-125.42-20v9.44a6.48,6.48,0,0,0,6.47,6.47h119a7.76,7.76,0,0,0,7.75-7.75v-8.16Z"/><rect class="cls-9" x="153.97" y="52.88" width="124.95" height="6.2"/><path class="cls-8" d="M276,161.27H156.87a11.11,11.11,0,0,1-11.1-11.1V54.1A11.12,11.12,0,0,1,156.87,43H276a11.12,11.12,0,0,1,11.1,11.11v96.07A11.11,11.11,0,0,1,276,161.27ZM156.87,47.07a7,7,0,0,0-7,7v96.07a7,7,0,0,0,7,7H276a7,7,0,0,0,7-7V54.1a7,7,0,0,0-7-7Z"/><rect class="cls-8" x="147.81" y="137.22" width="137.24" height="4.08"/><path class="cls-8" d="M281,134.66h-129V50.84H281Zm-125-4.07H276.88V54.92H156Z"/><rect class="cls-8" x="153.97" y="57.04" width="124.95" height="4.08"/><path class="cls-8" d="M216.52,154.68a5.1,5.1,0,1,1,5.1-5.1A5.11,5.11,0,0,1,216.52,154.68Zm0-6.12a1,1,0,1,0,1,1A1,1,0,0,0,216.52,148.56Z"/><polyline class="cls-10" points="201.26 159.56 198.39 186.26 234.42 186.26 231.24 159.6"/><polygon class="cls-8" points="236.71 188.29 196.12 188.29 199.23 159.34 203.28 159.78 200.66 184.22 232.12 184.22 229.22 159.85 233.26 159.36 236.71 188.29"/><path class="cls-8" d="M244,196.16H188.82V184.55H244Zm-51.1-4.08h47v-3.46h-47Z"/><circle class="cls-8" cx="172.13" cy="93.38" r="2.98"/><path class="cls-8" d="M172.13,98.4a5,5,0,1,1,5-5A5,5,0,0,1,172.13,98.4Zm0-6a.95.95,0,0,0,0,1.89.95.95,0,1,0,0-1.89Z"/><path class="cls-8" d="M166.85,102.67a5.29,5.29,0,0,1,10.57,0"/><path class="cls-8" d="M179.46,102.67h-4.08a3.25,3.25,0,1,0-6.49,0h-4.08a7.33,7.33,0,0,1,14.65,0Z"/><circle class="cls-8" cx="250.58" cy="93.38" r="2.98"/><path class="cls-8" d="M250.58,98.4a5,5,0,1,1,5-5A5,5,0,0,1,250.58,98.4Zm0-6a.95.95,0,0,0,0,1.89.95.95,0,1,0,0-1.89Z"/><path class="cls-8" d="M245.3,102.67a5.29,5.29,0,0,1,10.57,0"/><path class="cls-8" d="M257.91,102.67h-4.08a3.25,3.25,0,1,0-6.5,0h-4.07a7.33,7.33,0,0,1,14.65,0Z"/><circle class="cls-8" cx="262.09" cy="94.53" r="2.57"/><path class="cls-8" d="M262.09,98.85a4.32,4.32,0,1,1,4.32-4.32A4.33,4.33,0,0,1,262.09,98.85Zm0-5.13a.81.81,0,1,0,.81.81A.81.81,0,0,0,262.09,93.72Z"/><path class="cls-8" d="M257.54,102.52a4.55,4.55,0,0,1,9.1,0"/><path class="cls-8" d="M268.39,102.52h-3.51a2.8,2.8,0,1,0-5.59,0h-3.5a6.3,6.3,0,0,1,12.6,0Z"/><rect class="cls-11" x="183.05" y="93.07" width="26.29" height="4.08"/><rect class="cls-11" x="211.45" y="93.07" width="26.29" height="4.08"/><line class="cls-12" x1="60.56" y1="125.06" x2="60.56" y2="126.56"/><line class="cls-13" x1="60.56" y1="129.72" x2="60.56" y2="147.1"/><polyline class="cls-12" points="60.56 148.68 60.56 150.18 62.06 150.18"/><line class="cls-14" x1="65.05" y1="150.18" x2="171.18" y2="150.18"/><polyline class="cls-12" points="172.67 150.18 174.17 150.18 174.17 148.68"/><line class="cls-15" x1="174.17" y1="145.89" x2="174.17" y2="113.85"/><line class="cls-12" x1="174.17" y1="112.46" x2="174.17" y2="110.96"/><line class="cls-12" x1="262.09" y1="109.6" x2="262.09" y2="111.1"/><line class="cls-16" x1="262.09" y1="114.07" x2="262.09" y2="171.98"/><polyline class="cls-12" points="262.09 173.46 262.09 174.96 263.59 174.94"/><line class="cls-17" x1="266.42" y1="174.91" x2="304.66" y2="174.41"/><polyline class="cls-12" points="306.08 174.39 307.57 174.37 307.57 172.87"/><line class="cls-18" x1="307.57" y1="169.53" x2="307.57" y2="157.85"/><polyline class="cls-12" points="307.57 156.18 307.57 154.68 309.07 154.68"/><line class="cls-19" x1="312.14" y1="154.68" x2="329.03" y2="154.68"/><line class="cls-12" x1="330.56" y1="154.68" x2="332.06" y2="154.68"/><line class="cls-12" x1="249.92" y1="79.85" x2="249.92" y2="78.35"/><line class="cls-20" x1="249.92" y1="75.5" x2="249.92" y2="31.37"/><polyline class="cls-12" points="249.92 29.95 249.92 28.45 251.42 28.45"/><line class="cls-21" x1="254.42" y1="28.45" x2="355.12" y2="28.45"/><polyline class="cls-12" points="356.62 28.45 358.12 28.45 358.12 29.95"/><line class="cls-22" x1="358.12" y1="31.66" x2="358.12" y2="34.21"/><line class="cls-12" x1="358.12" y1="35.07" x2="358.12" y2="36.57"/></svg>